<?xml version="1.0" encoding="UTF-8"?>
<svg xmlns="http://www.w3.org/2000/svg" viewBox="0 0 1686.64 554.55">
  <defs>
    <style>
      .cls-1 {
        fill: #f75fc4;
      }

      .cls-1, .cls-2, .cls-3, .cls-4, .cls-5, .cls-6, .cls-7 {
        stroke: #6a3906;
      }

      .cls-1, .cls-2, .cls-3, .cls-4, .cls-7 {
        stroke-miterlimit: 10;
      }

      .cls-1, .cls-2, .cls-4, .cls-5, .cls-7 {
        stroke-width: 10px;
      }

      .cls-8 {
        fill: #fbf5d6;
      }

      .cls-9 {
        fill: #231815;
      }

      .cls-10, .cls-3, .cls-5, .cls-6 {
        fill: #6a3906;
      }

      .cls-2, .cls-11 {
        fill: #f7dd5f;
      }

      .cls-12 {
        fill: #fdf7d8;
      }

      .cls-13 {
        fill: none;
      }

      .cls-4 {
        fill: #5f78f7;
      }

      .cls-5, .cls-6 {
        stroke-linecap: round;
        stroke-linejoin: round;
      }

      .cls-7 {
        fill: #5ff792;
      }
    </style>
  </defs>
  <g id="_レイヤー_2" data-name="レイヤー 2">
    <rect class="cls-12" x="0" width="1686.64" height="554.55" rx="140.31" ry="140.31"/>
  </g>
  <g id="_レイヤー_1" data-name="レイヤー 1">
    <ellipse class="cls-2" cx="500.27" cy="387.52" rx="77.49" ry="76.88"/>
    <path class="cls-11" d="M1104,217.99c-.95-.1-1.89-.17-2.84-.23-.31-.15-.63-.28-.96-.39-1.24-1.36-2.99-2.24-5.19-2.17-10.27.34-20.57,1.46-30.62,3.56-3.57.75-7.01,1.85-9.98,3.54-5.99,2.75-10.94,6.73-15.32,11.37-3.24,2.24-6.13,4.93-8.46,8.36-2.59,3.82-4.82,8.1-6.76,12.55-8.3,14.5-13.55,30.65-15.52,47.17-.7,3.51-1.11,7.07-1.13,10.68-2.14,7.42-2.42,15.71,1.77,21.36,4.47,6.03,10.05,4.78,15.07,1.2,2.09-.69,4.05-2.29,4.87-4.28,2.72-2.82,5.01-5.89,6.51-8.1,4.83-7.14,9.27-14.46,14.06-21.59,8.19-8.62,15.89-17.65,22.52-27.52.38-.56.74-1.13,1.1-1.71,2.25-2.4,4.55-4.76,6.87-7.09,4.27-4.27,8.62-8.46,12.8-12.8,4.31-4.47,9.6-9.3,12.28-14.94.45-.94.78-1.85,1.02-2.74,2.45-1.47,4.24-3.74,5.08-7,1.27-4.96-2.35-8.72-7.16-9.21Z"/>
    <path class="cls-8" d="M396.03,328.34c-1.16-.52-2.33-1.03-3.51-1.54-1.98-.48-4.11-.48-6.1-.92-3.45-.76-6.64-2.04-9.69-3.78-9.38-5.36-15.83-14.12-20.57-23.52-1.2-.36-2.36-.87-3.47-1.56-3.9-2.44-5.42-5.97-4.97-9.74-4.48-6.37-8.22-13.02-10.98-20.43-3.11-8.34-6.14-16.71-9.3-25.03-2.58-.21-5.28.2-7.79.34-3.87.21-7.75.39-11.63.53-8.4.3-16.81.42-25.22.36-4.53-.03-9.05-.11-13.58-.25-3.61-.11-7.34-.67-10.73.74-3.23-4.53-12.18-4.61-13.43,1.99-3.04,16.04-1.26,32.62-.08,48.77,1.21,16.52,2.38,33.05,1.09,49.61-.11,1.42.14,2.62.65,3.61.05,3.21.17,6.42.34,9.63.02,3.73.05,7.47.06,11.2.02,6.63-.04,13.26-.52,19.87-.45,6.18-2.37,12.46-2.41,18.62-.04,5.65,2.75,11.44,8.39,13.52,1.03,1.17,2.43,2.1,3.71,2.28,5.71.8,9.02-.9,10.83-3.93.39,0,.79-.02,1.2-.07,6.78-.89,13.43-1.93,19.76-4.58,6.39-2.68,11.16-7.03,16.14-11.64,10.08-9.33,22.29-16.52,33.82-23.99,10.98-7.12,22.27-15.5,35.22-18.73,5.77-1.44,11.71.23,17.32-1.21,6.83-1.75,9.3-9.04,10.03-15.15.66-5.49.13-11.79-4.58-14.97Z"/>
    <rect class="cls-4" x="332.11" y="315.24" width="42.22" height="39.48"/>
    <rect class="cls-2" x="332.11" y="259.17" width="42.22" height="39.48"/>
    <path class="cls-11" d="M460.62,161.28c-.27-5.89-5.28-11.92-8.13-16.9-3.06-5.34-6.12-10.67-9.18-16.01-2.71-4.73-5.37-9.68-9.49-13.42-1.13-1.02-2.33-1.94-3.56-2.8.38-2.94-.98-6.37-3.36-8.17-10.29-7.78-23.36-11.55-36.31-10.71-2.31.18-4.06,1.18-5.25,2.58-2.17-.53-4.62-.17-6.77,1.62-.48.4-.94.81-1.38,1.23-7.6,6.68-16.01,13.2-21.27,21.85-4.83,7.95-8.14,17.09-10.94,26.01-4.02,8.47-6.61,17.72-9.26,26.57-3.8,12.68-6.9,26.04-6.08,39.33.29,4.65,1.15,9.16,2.25,13.63-.17.15-.33.29-.5.44-3.42,3.15-2.62,9.22,1.5,11.42.67.36,1.36.68,2.06.98.62,3.67,1.03,7.36,1.49,11.14,1.38,11.38,4.9,22.18,10.67,32.09-.29,1.45-.14,3.05.63,4.69,4.1,8.63,7.18,18.42,16.35,23.1,4.21,2.15,8.72,3.54,12.88,5.83,4.36,2.4,8.76,4.77,13.73,5.63,8.83,1.53,18.18-.33,25.46-5.55,3.64-2.61,5.88-6.63,9.42-9.17,4.23-3.03,7.27-4.21,9.35-9.32,1.11-2.73-.7-6.96-3.41-8.21-4.94-2.27-6.68-6.91-8.48-11.68-1.97-5.2-4.2-10.25-6.79-15.18-2.57-4.9-5.37-9.69-7.82-14.64-.71-1.43-2-3.59-2.89-5.78,4.88-1.03,6.46-6.44,4.73-10.32,5.69-8.25,11.32-16.55,16.52-25.11.54-.02,1.09-.04,1.63-.06,4.32-.19,7.11-3.31,7.28-6.95,1.88-1.53,5.09-2.7,6.83-3.36,5.86-2.23,6.2-9.18,3.02-12.57,2.34-2.69,4.67-5.38,7.01-8.07,3.61-4.16,8.33-8.24,8.06-14.15Z"/>
    <path class="cls-8" d="M363.43,307.68c.5,1.18,1.42,2.24,2.8,3.09-.96-1-1.89-2.03-2.8-3.09Z"/>
    <path class="cls-11" d="M342.53,140.65c-.54-.91-1.6-1.77-2.66-2.01-.68-.15-1.38-.14-2.05,0-.12-.37-.25-.72-.4-1.07-.8-1.85-2.48-3.16-4.4-3.25-1.14-1.15-2.52-2.17-4.2-3.02-5.59-2.84-12.44-1.84-16.07,3.45-.63.92-1.14,1.88-1.62,2.86-.36.11-.72.28-1.06.53-6.44,4.83-12.88,9.66-17.86,16.01-1.41,1.8-2.71,3.69-3.95,5.63-12.11,8.68-24.23,17.32-36.11,26.32-16.43,12.45-32.56,25.28-48.41,38.43-2.22.55-4.43,1.16-6.62,1.85-1.72.55-3.46,2.27-3.27,4.21.09.88.17,1.75.26,2.63.02.23.07.46.12.69-.75,2.24.29,5.02,2.95,5.65,3.21.77,6.54-.18,9.71-1.8,1,.02,2,.04,3,.06,6.17,1.04,12.5.96,18.87.4,2.71.05,5.43.08,8.16.11,6.74.88,13.53,1.26,20.36,1.1,1.17-.03,2.08-.37,2.77-.88,9.84.36,19.65-.55,29.47-1.5,1.55-.15,3.09-.3,4.64-.44,10.85.52,21.7,1.33,32.52,2.44,2.23.23,4.69-2.19,4.46-4.36-.35-3.23-1.97-5.07-4.27-6.15-4.01-18.12.15-35.19,4.68-53.03,1.38-5.43,4.04-12.79,5.38-20.1.08-.16.17-.3.24-.47.35-.88.71-1.75,1.06-2.63.33-.83.4-1.58.26-2.24,1.74-.22,3.33-1.33,3.77-3.12.25-.99.49-1.98.74-2.98.28-1.12.15-2.36-.45-3.36Z"/>
    <ellipse class="cls-2" cx="176.2" cy="403.13" rx="63.96" ry="62.64"/>
    <path class="cls-13" d="M450.38,234.06c-.09.12-.23.29-.39.5-1.98,2.55-3.3,4.55-3.62,5.03-4.26,6.35-12.45,14.13-11.92,20.49.3,3.62,1.75,7.1,1.75,7.1.16.47.37.92.61,1.35,1.36,2.38,3.63,6.13,6.43,10.66,2.74-5.52,11.05-23.96,18.74-58.82-2.89,3.41-5.78,6.82-8.67,10.23-.98,1.15-1.95,2.3-2.93,3.46Z"/>
    <path class="cls-13" d="M413.53,216.99c4.74-5.96,8.56-10.19,10.12-11.75,14.38-14.25,28.39-31.62,35.07-40.17-.3-.99-.61-1.98-.95-2.95-9.28-26.89-33.52-64.84-58.34-65.01-.06,0-.11,0-.17,0-8.58,0-17.77,4.52-26.58,13.09-21.72,21.13-37.49,62.7-37.49,98.85,0,30.35,6.96,58.81,19.61,80.14,12.15,20.5,28.01,31.79,44.66,31.79,3.87,0,12.71-2.53,28.43-19.47l.6-.65c.29-.31.57-.61.85-.92l-12.9-18.96c-15.51-27.47-25.08-36.14-2.93-64Z"/>
    <path class="cls-13" d="M336.7,233h66.54c2.08-4.68,5.41-9.88,10.29-16.01,2.37-2.98,4.51-5.53,6.25-7.52l-72.35-59.58c-7.63,18.59-12.23,39.66-12.23,59.16,0,8.16.52,16.17,1.5,23.95Z"/>
    <path class="cls-13" d="M404.87,261.56c-.15-.31-.3-.6-.44-.9v59.3c.62-.23,1.28-.51,1.98-.84v-55.67c-.42-.78-.82-1.55-1.2-2.3l-.34.42Z"/>
    <path class="cls-13" d="M346.25,294.06c-8.2-13.83-14.15-30.41-17.57-48.46h0s0,0,0,0c-.06-.32-.13-.64-.19-.97h-79.83v170.47h.73c21.48-3.06,43.72-13.28,66.46-30.61,2.87-2.59,23.67-20.67,55.62-30.42,6.91-2.11,14.64-3.9,23.06-4.98v-18.68c-18.43-1.94-35.42-14.67-48.28-36.35Z"/>
    <path class="cls-13" d="M326.72,233h-89.94v1.94h90.2c-.08-.65-.18-1.29-.26-1.94Z"/>
    <path class="cls-13" d="M406.41,329.55v18.54c19.35-.77,41.54,2.56,65.15,13.87l-36.54-53.7c-10.89,11.69-20.32,18.71-28.61,21.28Z"/>
    <path class="cls-13" d="M406.41,263.44v55.67c4.9-2.31,11.92-7.28,21.5-17.6l.6-.65c.29-.31.57-.61.85-.92l-12.9-18.96c-3.85-6.81-7.33-12.47-10.05-17.55Z"/>
    <path class="cls-13" d="M404.43,330.08v18.1c.66-.04,1.32-.07,1.98-.09v-18.54c-.67.21-1.33.39-1.98.53Z"/>
    <path class="cls-13" d="M326.43,396.04c-.18.17-.38.33-.57.48-10,7.64-19.64,13.75-28.86,18.58h97.52v-50.39c-5.9.89-11.82,2.21-17.76,4-30.39,9.13-50.13,27.15-50.33,27.33Z"/>
    <path class="cls-13" d="M402.07,234.56c-.03.08-.06.16-.09.24.14-.01.28-.03.42-.05-.11-.06-.22-.13-.33-.19Z"/>
    <path class="cls-13" d="M336.83,233.97c.04.32.08.65.13.97h.02c-.04-.32-.1-.64-.14-.97Z"/>
    <polygon class="cls-13" points="328.68 245.6 328.68 245.6 328.68 245.6 328.68 245.6"/>
    <path class="cls-13" d="M400.51,244.61c-.16,0-.33,0-.5.01,0,0,0,0,0,.01h-.01c0,.08,0,.16,0,.25,0,.57.02,1.13.05,1.69h0c.32,4.63,1.92,9.13,4.36,14.08.15.3.29.6.44.9l.34-.42c-2.96-5.87-4.75-11.06-4.7-16.53Z"/>
    <path class="cls-13" d="M333.95,246.09h62.4c.88,0,1.75-.06,2.6-.14.03-.08.06-.16.09-.24.11.05.22.12.33.19.04,0,.08-.01.13-.02.22-.57.46-1.15.72-1.73h-66.54c.04.32.09.65.13.97.04.33.1.64.14.97Z"/>
    <path class="cls-13" d="M338.58,244.63h-.01c.06.32.12.65.19.97h0c-.06-.32-.11-.65-.18-.97Z"/>
    <path class="cls-13" d="M302.79,255.72c.06.32.11.65.18.97h0c3.25,16.26,8.68,31.15,16.06,43.59,10.94,18.46,24.89,29.44,39.71,31.45v-76.01h-55.95Z"/>
    <path class="cls-13" d="M326.72,233c-.94-7.8-1.42-15.81-1.42-23.95,0-22.01,5.26-45.4,14.1-65.77l-14.53-11.96-125.82,103.62h37.72v-1.94h89.94Z"/>
    <path class="cls-13" d="M238.76,244.63h-1.98v171.45c.66,0,1.32-.01,1.98-.03v-171.41Z"/>
    <path class="cls-13" d="M404.43,419.96c0,2.68-2.22,4.85-4.95,4.85h-124.98c-2.1.71-4.17,1.36-6.21,1.94h138.12v-63.23c-.66.03-1.32.08-1.98.12v56.31Z"/>
    <path class="cls-13" d="M399.44,97.11c-.06,0-.11,0-.17,0-8.58,0-17.77,4.52-26.58,13.09-8.01,7.79-15.21,18.37-21.11,30.43l74.71,61.53c.08.06.15.13.22.2,13.35-13.64,25.98-29.31,32.21-37.29-.3-.99-.61-1.98-.95-2.95-9.28-26.89-33.52-64.84-58.34-65.01Z"/>
    <path class="cls-9" d="M337.71,239.87c.26,1.6.55,3.18.86,4.76h.01c-.31-1.58-.6-3.16-.87-4.76Z"/>
    <path class="cls-10" d="M401.98,234.79c-.09.23-.17.46-.25.7-1.15,3.22-1.69,6.22-1.71,9.13.17,0,.33,0,.5-.01.03-3.12.64-6.33,1.98-9.81-.03-.02-.06-.04-.1-.05-.14.02-.28.04-.42.05Z"/>
    <path class="cls-10" d="M238.76,239.78c0-2.68,2.22-4.85,4.95-4.85h-6.93v9.7h1.98v-4.85Z"/>
    <path class="cls-10" d="M199.06,234.94l125.82-103.62,14.53,11.96c1.35-3.12,2.8-6.16,4.31-9.12l-15.65-12.89c-1.84-1.52-4.53-1.52-6.37,0l-139.4,114.8c-1.59,1.31-2.18,3.46-1.47,5.37.71,1.91,2.57,3.19,4.65,3.19h51.3v-9.7h-37.72Z"/>
    <path class="cls-9" d="M402.49,234.8s.02-.05.03-.07c-.04,0-.08.01-.13.02.03.02.07.04.1.05Z"/>
    <path class="cls-9" d="M336.96,234.94c.22,1.63.47,3.25.73,4.85-.26-1.6-.5-3.23-.72-4.85h-.02Z"/>
    <path class="cls-9" d="M327.68,239.84s0,0,0-.01c0,0,0,0,0,.01Z"/>
    <path class="cls-9" d="M328.51,244.63h-.02c.06.33.13.65.19.97-.06-.32-.11-.65-.17-.97Z"/>
    <path class="cls-10" d="M404.43,330.08c.65-.15,1.31-.33,1.98-.53v-10.43c-.7.33-1.36.61-1.98.84v10.13Z"/>
    <path class="cls-6" d="M406.41,233.96v-.97h-3.16c-.26.59-.5,1.16-.72,1.73,1.34-.16,2.64-.42,3.88-.77Z"/>
    <path class="cls-10" d="M491.07,390.63l-19.51-28.67c-23.61-11.31-45.8-14.64-65.15-13.87v15.43c29.74-1.45,58.78,8.61,86.65,30.1,3.44,2.65,8.42,2.07,11.12-1.3.06-.08.11-.16.17-.24l-1.68,1.1c-3.9,2.55-9.19,1.39-11.61-2.55Z"/>
    <path class="cls-10" d="M315.85,384.5c-22.74,17.33-44.98,27.55-66.46,30.61h47.61c9.22-4.83,18.86-10.94,28.86-18.58.19-.15.39-.32.57-.48.2-.18,19.94-18.2,50.33-27.33,5.94-1.79,11.86-3.11,17.76-4v-15.62c-8.41,1.08-16.14,2.87-23.06,4.98-31.95,9.76-52.76,27.84-55.62,30.42Z"/>
    <path class="cls-10" d="M404.43,348.18v15.46c.66-.04,1.32-.09,1.98-.12v-15.43c-.66.03-1.32.06-1.98.09Z"/>
    <path class="cls-10" d="M236.78,416.08c-6.25.07-12.44-.48-18.54-1.67-22.84-4.45-36.24-16.6-36.56-16.88-3.15-2.96-8.15-2.86-11.18.22-3.04,3.08-2.95,8,.2,10.97.65.62,16.28,15.15,43.47,20.72,6.15,1.26,13.21,2.11,21.08,2.11,9.81,0,20.89-1.32,33.03-4.79h-31.5v-10.66Z"/>
    <path class="cls-10" d="M243.71,424.8c-2.73,0-4.95-2.17-4.95-4.85v-3.91c-.66.02-1.32.02-1.98.03v10.66h31.5c2.04-.58,4.11-1.23,6.21-1.94h-30.78Z"/>
    <path class="cls-10" d="M502.86,381.43c-10.62-8.19-21.09-14.57-31.3-19.46l19.51,28.67c2.42,3.94,7.71,5.1,11.61,2.55l1.68-1.1c2.5-3.36,1.86-8.07-1.5-10.66Z"/>
    <path class="cls-10" d="M399.47,330.68c-1.66,0-3.31-.1-4.95-.27v18.68c3.2-.41,6.51-.72,9.9-.91v-18.1c-1.7.39-3.35.6-4.95.6Z"/>
    <path class="cls-10" d="M248.66,415.11v-170.47h-9.9v171.41c3.52-.11,7.06-.43,10.63-.94h-.73Z"/>
    <path class="cls-10" d="M328.49,244.63c-.29-1.59-.56-3.19-.81-4.79,0,0,0,0,0-.01-.25-1.62-.48-3.25-.7-4.89h-83.27c-2.73,0-4.95,2.17-4.95,4.85v4.85h89.73Z"/>
    <path class="cls-9" d="M326.98,234.94c.21,1.64.44,3.27.7,4.89-.25-1.62-.48-3.25-.69-4.89h0Z"/>
    <path class="cls-9" d="M337.71,239.87s0-.06-.01-.09c0,.03,0,.06.01.09Z"/>
    <path class="cls-9" d="M327.68,239.84c.25,1.61.52,3.21.81,4.79h.02c-.29-1.59-.58-3.18-.83-4.79Z"/>
    <path class="cls-10" d="M394.52,364.71c3.31-.5,6.61-.85,9.9-1.07v-15.46c-3.39.19-6.7.49-9.9.91v15.62Z"/>
    <path class="cls-10" d="M249.39,415.11c-3.56.51-7.11.83-10.63.94v3.91c0,2.68,2.22,4.85,4.95,4.85h30.78c7.18-2.42,14.69-5.6,22.51-9.7h-47.61Z"/>
    <rect class="cls-7" x="271.77" y="259.44" width="42.22" height="39.48"/>
    <rect class="cls-1" x="271.77" y="314.96" width="42.22" height="39.48"/>
    <path class="cls-10" d="M347.43,149.89c1.3-3.16,2.68-6.25,4.15-9.25l-7.86-6.48c-1.51,2.96-2.96,6-4.31,9.12l8.02,6.61Z"/>
    <g>
      <line class="cls-5" x1="399.48" y1="304.16" x2="399.48" y2="353.68"/>
      <path class="cls-10" d="M427.91,301.52c-9.58,10.32-16.6,15.29-21.5,17.6v10.43c8.29-2.57,17.73-9.59,28.61-21.28l-5.66-8.32c-.28.3-.56.61-.85.92l-.6.65Z"/>
      <path class="cls-10" d="M326.85,233.97h9.98s0,0,0,0c-.04-.32-.09-.65-.13-.97h-9.98c.08.65.17,1.29.26,1.94h0c-.04-.32-.1-.64-.14-.97Z"/>
      <path class="cls-10" d="M336.83,233.97h-9.98c.04.33.09.64.14.97h9.97c-.04-.32-.09-.65-.13-.97,0,0,0,0,0,0Z"/>
      <path class="cls-10" d="M328.51,244.63c.06.32.11.65.17.97,0,0,0,0,0,0h10.07c-.06-.32-.13-.65-.19-.97h-10.05Z"/>
      <path class="cls-10" d="M354.81,289.19c-7.38-12.45-12.8-27.33-16.06-43.59h-10.07c3.42,18.05,9.37,34.62,17.57,48.46,12.85,21.69,29.85,34.42,48.28,36.35v-9.77c-14.82-2.01-28.77-12.99-39.71-31.45Z"/>
      <path class="cls-10" d="M372.69,110.2c8.81-8.57,17.99-13.09,26.58-13.09.06,0,.11,0,.17,0,24.82.17,49.06,38.12,58.34,65.01.33.97.65,1.96.95,2.95,1.87-2.39,3.17-4.1,3.73-4.84,0,0,1.35-1.57,3.63-4.21-10.62-28.55-36.08-68.4-66.57-68.61-.08,0-.16,0-.24,0-11.25,0-22.85,5.5-33.55,15.9-8.36,8.13-15.82,18.77-22,30.84l7.86,6.48c5.9-12.06,13.1-22.64,21.11-30.43Z"/>
      <path class="cls-10" d="M326.72,233h9.98c-.98-7.78-1.5-15.79-1.5-23.95,0-19.5,4.59-40.57,12.23-59.16l-8.02-6.61c-8.84,20.37-14.1,43.76-14.1,65.77,0,8.13.48,16.14,1.42,23.95Z"/>
      <path class="cls-10" d="M338.56,244.63c-.31-1.57-.59-3.16-.86-4.76,0-.03,0-.06-.01-.09-.27-1.61-.51-3.22-.73-4.85h-9.97c.21,1.64.44,3.27.69,4.89,0,0,0,0,0,.01.25,1.61.54,3.2.83,4.79h10.05Z"/>
      <path class="cls-10" d="M399.47,320.99c-1.66,0-3.31-.12-4.95-.34v9.77c1.64.17,3.29.27,4.95.27s3.25-.21,4.95-.6v-10.13c-2.14.8-3.78,1.03-4.95,1.03Z"/>
      <g>
        <path class="cls-10" d="M473.71,206.51c20.43-24.13,40.86-48.25,61.29-72.38,2.72-3.21,2.48-7.91-.54-10.85l-15.53-15.09c-1.7-1.66-3.95-2.42-6.15-2.33-3.52.15-5.59,2.47-5.92,2.85-12.54,14.55-32.63,37.85-40.79,47.32.38,1.01.74,2.01,1.08,3,6.3,18.26,6.65,39.91,6.55,47.49Z"/>
        <path class="cls-10" d="M442.3,280.99c-4.68,8.06-7.6,13.09-12.94,18.96l5.66,8.32c.07-.08.14-.15.22-.23l.56-.61c5.89-6.27,9.2-11.54,13.41-18.74-2.15-3.39-4.17-6.61-5.97-9.51-.59,1.18-.92,1.78-.94,1.81Z"/>
        <path class="cls-10" d="M458.72,165.08c5.97,19.81,5.04,43.52,5.03,43.77-.02.38,0,.72.08,1.1.04.24.12,1.01-.02,1.72-.61,3.01-1.22,5.91-1.83,8.7l6.67-7.87c1.69-2,3.38-3.99,5.07-5.99.1-7.58-.25-29.23-6.55-47.49-.34-.98-.7-1.98-1.08-3-2.28,2.64-3.63,4.21-3.63,4.21-.57.75-1.86,2.45-3.73,4.84Z"/>
        <path class="cls-6" d="M407.45,234.79c8.81-3.25,14.76-9.03,15.93-14.1.79-3.46.34-7.2.34-7.2-.27-2.23-.85-4.05-1.36-5.33v-.74c-1.13,1.31-2.82,3.26-4.85,5.64-6.81,7.99-8.29,10.06-8.95,11.01-1.4,2-3.33,5-5.3,8.93,1.4.6,2.81,1.2,4.21,1.8Z"/>
        <path class="cls-6" d="M400.51,244.61c-.05,5.47,1.74,10.65,4.7,16.53l.21-.25v-16.75c-1.59.26-3.23.43-4.91.48Z"/>
        <path class="cls-10" d="M431.8,223.76c-3.28,8.81-13.27,17.71-25.95,20.19l-.97,17.6c2.72,5.08,7.74,12.62,11.59,19.43l12.9,18.96c5.34-5.87,8.26-10.89,12.94-18.96.02-.03.36-.63.94-1.81-2.8-4.52-5.07-8.27-6.43-10.66-.25-.43-.45-.89-.61-1.35,0,0-1.45-3.48-1.75-7.1-.53-6.36,7.67-14.14,11.92-20.49.32-.48,1.64-2.48,3.62-5.03.16-.21.3-.38.39-.5.98-1.15,1.95-2.3,2.93-3.46,2.89-3.41,5.78-6.82,8.67-10.23.62-2.8,1.23-5.7,1.83-8.7.14-.71.06-1.48.02-1.72-.07-.37-.1-.72-.08-1.1.01-.25.94-23.96-5.03-43.77-6.23,7.98-18.86,23.65-32.21,37.29,6.31,5.35,8.29,13.32,5.28,21.39Z"/>
        <path class="cls-10" d="M419.92,209.59h0c4.18,3.45,3.71,7.8,2.58,10.85-2.05,5.52-8.04,11.29-16.09,13.53v9.99c12.68-2.48,22.11-11.38,25.39-20.19,3.01-8.08,1.03-16.05-5.28-21.39-.94.89-1.89,1.85-2.86,2.88-1.39,1.49-2.63,2.94-3.73,4.34Z"/>
        <path class="cls-10" d="M402.52,234.73s-.02.05-.03.07c1.74,1.01,2.92,2.86,2.92,4.99v4.35c.33-.06.66-.12.99-.18v-9.99c-1.25.35-2.54.6-3.88.77Z"/>
        <path class="cls-10" d="M400.51,244.61c1.68-.05,3.32-.21,4.91-.48v-4.35c0-2.13-1.18-3.97-2.92-4.99-1.34,3.49-1.96,6.7-1.98,9.81Z"/>
        <path class="cls-10" d="M508.42,380.51c-6.71-11.75-40.2-62.86-40.2-62.86-5.97-8.71-12.99-19.48-19.01-28.95-4.21,7.2-7.52,12.47-13.41,18.74l-.56.61c-.07.08-.14.15-.22.23l36.54,53.7c10.21,4.89,20.68,11.27,31.3,19.46,3.36,2.59,3.99,7.3,1.5,10.66l1.46-.96c1.78-1.17,2.96-2.91,3.43-4.81.73-2.97-.53-5.3-.82-5.81Z"/>
      </g>
    </g>
    <path class="cls-11" d="M743.66,259.65c-.68.1-1.35.25-2.02.45-1.24-.38-2.57-.45-3.88-.09-10.25,2.84-17.22,11.81-17.23,22.26,0,1.16.23,2.18.63,3.05-.32,1.76-.51,3.54-.58,5.3-.49,12.15,6.11,27.77,20.94,27,1.43-.07,2.82-.33,4.15-.74,2.32.43,4.86.45,7.64-.03,7.35-1.27,10.95-5.79,12.45-11.43,14.32-16.82.16-54.49-22.1-45.79Z"/>
    <g>
      <path class="cls-3" d="M750.18,413.32c-26.74,0-48.49-22.85-48.49-50.93,0-1.57,1.27-2.83,2.83-2.83h18.35c1.57,0,2.83,1.27,2.83,2.83,0,14.4,10.98,26.11,24.48,26.11s24.48-11.71,24.48-26.11v-36.88c-7.33,5.33-16.25,8.21-25.7,8.21-25.17,0-45.64-21.32-45.64-47.53s19.82-46.84,44.44-47.51v-29.25h-115.39c-1.57,0-2.83-1.27-2.83-2.83v-19.58c0-1.57,1.27-2.83,2.83-2.83h115.39v-63.57c0-1.57,1.27-2.83,2.83-2.83h45.66c1.57,0,2.83,1.27,2.83,2.83v63.57h73.81c1.57,0,2.83,1.27,2.83,2.83v19.58c0,1.57-1.27,2.83-2.83,2.83h-73.81v152.95c0,28.08-21.94,50.93-48.9,50.93ZM748.96,263.92c-11.9,0-21.22,9.79-21.22,22.28s9.52,22.7,21.22,22.7,21.22-10.18,21.22-22.7-9.32-22.28-21.22-22.28Z"/>
      <path class="cls-3" d="M1161.03,382.67c-.77-.02-1.5-.35-2.02-.92l-31.8-34.9c-1.02-1.12-.98-2.83.08-3.9,12.76-12.9,20-29.75,20.38-47.44.4-18.44-5.99-35.72-18-48.66l-.38-.4-127.18,131.12c-.53.55-1.27.86-2.03.86-.02,0-.03,0-.05,0-.78-.01-1.53-.35-2.05-.93-44.07-48.62-42.2-125.8,4.18-172.04,21.88-21.63,50.58-33.53,80.82-33.53,32.48,0,62.57,13.46,84.72,37.89,21.29,23.53,32.55,54.47,31.72,87.1-.83,32.51-13.73,62.67-36.31,84.95-.53.52-1.25.82-1.99.82-.03,0-.05,0-.08,0ZM1082.79,225.72c-16.71,0-32.63,6.62-44.84,18.65-20.02,19.76-25.61,50.86-14.23,76.9l85.81-89.6c-8.39-3.9-17.56-5.95-26.74-5.95Z"/>
      <path class="cls-3" d="M1370.24,406.93c-15.56,0-30.18-6.2-41.17-17.45-22.63-23.63-22.63-62.05-.02-85.67.53-.56,1.27-.87,2.05-.87s1.51.32,2.05.87l13.05,13.62c1.05,1.1,1.05,2.83,0,3.92-13.24,13.82-13.24,36.31,0,50.13,6.39,6.86,14.92,10.62,24.04,10.62s17.66-3.76,24.02-10.59c.54-.58,1.29-.9,2.07-.9h0c.79,0,1.54.33,2.08.91l13.04,14.05c1.03,1.11,1.01,2.83-.05,3.91-10.99,11.25-25.61,17.45-41.16,17.45ZM1395.52,343.94c-1.57,0-2.83-1.27-2.83-2.83v-48.1c0-1.57,1.27-2.83,2.83-2.83,10.58,0,19.18-9.04,19.18-20.15v-17.17h-114.17c-1.57,0-2.83-1.27-2.83-2.83v-19.15c0-1.57,1.27-2.83,2.83-2.83h114.17v-35.19h-114.17c-1.57,0-2.83-1.27-2.83-2.83v-19.15c0-1.57,1.27-2.83,2.83-2.83h114.17v-46.97c0-1.57,1.27-2.83,2.83-2.83h46.07c1.57,0,2.83,1.27,2.83,2.83v46.97h44.86c1.57,0,2.83,1.27,2.83,2.83v19.15c0,1.57-1.27,2.83-2.83,2.83h-44.86v35.19h44.86c1.57,0,2.83,1.27,2.83,2.83v19.15c0,1.57-1.27,2.83-2.83,2.83h-44.86v17.17c0,40.76-31.81,73.92-70.92,73.92Z"/>
    </g>
  </g>
</svg>