<?xml version="1.0" encoding="UTF-8"?>
<svg id="_レイヤー_1" data-name="レイヤー_1" xmlns="http://www.w3.org/2000/svg" version="1.1" viewBox="0 0 500 100">
  <!-- Generator: Adobe Illustrator 29.8.4, SVG Export Plug-In . SVG Version: 2.1.1 Build 6)  -->
  <defs>
    <style>
      .st0 {
        stroke-linecap: round;
      }

      .st0, .st1 {
        fill: none;
        stroke: #000;
        stroke-miterlimit: 10;
        stroke-width: .25px;
      }
    </style>
  </defs>
  <g>
    <path d="M3.86,93.63c-.47,0-.47-.84,0-.84,5.39-.12,6.53-1.56,6.53-18.18V27.66c0-16.61-1.14-18.06-6.53-18.18-.47,0-.47-.84,0-.84,4.45,0,5.39.36,6.6.36h15.76c13.61,0,20.14,10.47,20,24.32-.2,18.66-11.18,22.51-19.8,22.51-6.4,0-10.31,2.41-10.31,11.2v5.66c0,18.3,1.62,19.86,9.16,20.1.67,0,.67.84,0,.84-6.26,0-7.54-.36-9.23-.36h-5.59c-1.21,0-2.16.36-6.6.36ZM26.36,54.75c10.24,0,13.2-10.71,13.2-21.55,0-13.72-5.52-23.11-13.4-23.11h-9.5c-.2,1.2-.54,3.85-.54,14.93v36.6c1.48-5.66,5.66-6.86,10.24-6.86Z"/>
    <path d="M48.65,93.63c-.4,0-.4-.84,0-.84,5.12-.12,5.25-3.37,5.25-12.76v-24.44l-.07-3.61c-.13-8.67-1.08-14.33-4.51-14.33-.2-.12-.2-.84,0-.96,3.17-1.08,7.41-3.13,9.43-5.18.13-.24.27-.24.4,0l-.07,20.7-1.08,33.83h.47c1.28-28.05,8.69-54.17,16.64-54.17,2.56,0,4.98,2.77,7.14,8.91-5.73,10.59-7.48,22.63-7.81,24.44-.2,1.08-.81.48-.67-.12.67-3.25,1.55-8.31,3.37-13.84-.07-11.56-1.95-16.37-4.31-16.37-5.46,0-12.39,24.8-13.61,49.6.2,5.9,1.28,8.19,6.74,8.31.54,0,.54.84,0,.84-4.51,0-5.32-.36-6.87-.36h-5.12c-1.21,0-1.82.36-5.32.36Z"/>
    <path d="M82.19,65.1c0-17.94,6.26-33.71,17.65-33.71,7.07,0,13.4,5.42,13.4,13.24,0,13.24-10.91,13.12-18.19,16.13-3.91,1.68-6.74,4.21-6.33,10.23,1.89,9.75,6.4,18.42,14.48,18.42,7.48,0,12.86-10.95,15.63-24.56.27-.84.74-.48.54.36-3.57,17.34-10.37,29.25-20.14,29.25s-17.04-13.12-17.04-29.37ZM94.99,59.68c5.66-2.41,12.66-3.13,12.6-14.81-.07-6.26-1.89-12.4-7.75-12.4-6.74,0-12.19,9.03-12.19,27.21,0,2.65.2,5.54.61,8.43.54-4.81,3.37-6.98,6.74-8.43Z"/>
    <path d="M121.52,93.63c-.4,0-.4-.84,0-.84,5.12-.12,5.25-3.37,5.25-12.76v-28.05c0-8.67-1.08-14.33-4.51-14.33-.2-.12-.2-.84,0-.96,3.17-1.08,7.41-3.13,9.43-5.18.13-.24.27-.24.4,0l-.07,20.58-1.08,33.95h.47c1.82-41.89,8.55-54.77,15.09-54.77,5.46,0,9.56,4.82,9.3,29.37v.24c1.28-16.61,4.92-29.61,11.25-29.61,6.8,0,8.82,10.35,10.64,26.96l2.36,22.03c1.01,9.15,1.21,12.4,6.33,12.52.4,0,.4.84,0,.84-3.5,0-4.11-.36-5.32-.36h-5.19c-1.21,0-1.82.36-5.32.36-.4,0-.4-.84,0-.84,5.12-.12,5.19-3.37,4.18-12.52l-2.22-20.47c-1.62-14.81-3.23-25.16-7-25.16-6.06,0-9.16,16.37-9.83,38.4l-.07,6.98c-.07,9.39,0,12.64,5.12,12.76.4,0,.4.84,0,.84-3.5,0-4.11-.36-5.32-.36h-4.92c-1.21,0-1.82.36-5.32.36-.4,0-.4-.84,0-.84,5.12-.12,5.25-3.37,5.25-12.76v-15.41c0-17.09.13-30.1-5.93-30.1-5.73,0-10.78,16.25-12.46,50.56.2,5.42,1.21,7.58,5.26,7.58.4,0,.4.84,0,.84-3.5.12-4.11-.24-5.32-.24h-5.12c-1.21,0-1.82.36-5.32.36ZM131.9,80.03c0,.96,0,1.92.07,2.89l-.07-2.89Z"/>
    <path d="M188.54,93.63c-.4,0-.4-.84,0-.84,5.12-.12,5.25-3.37,5.25-12.76v-24.32c0-6.26,1.55-14.2,7.01-20.7-5.52,3.97-10.17,9.75-11.99,13.6-.34.84-.81,0-.47-.72,2.83-6.02,9.9-13.24,16.23-16.01.47-.24.67.48.4.84-5.52,5.66-5.99,14.69-5.99,23.96l.07,23.35c.07,9.39.2,12.64,5.32,12.64.4,0,.4.84,0,.84-3.5.12-4.11-.24-5.32-.24h-5.19c-1.21,0-1.82.36-5.32.36ZM194.6,14.78c0-3.37,1.42-6.14,3.44-6.14s3.5,2.53,3.5,6.14-1.35,6.14-3.5,6.14c-1.89,0-3.44-2.53-3.44-6.14Z"/>
    <path d="M212.85,68.83v-16.85c0-8.67-1.08-14.33-4.51-14.33-.2-.12-.2-.84,0-.96,3.17-1.08,7.41-3.13,9.43-5.18.14-.24.27-.24.4,0l-.07,20.7v16.25c0,17.7,3.71,22.15,8.02,22.15,8.76,0,12.06-32.5,12.06-39.72v-1.08c0-7.7-1.08-12.16-4.51-12.16-.2-.12-.2-.84,0-.96,3.17-1.08,7.41-3.13,9.43-5.18.13-.24.27-.24.4,0l-.07,18.3v32.38c0,5.06,0,11.08,2.29,11.08,1.82,0,2.9-2.89,3.37-4.81.2-.48.67-.12.54.48-.81,2.89-1.95,5.54-4.51,5.54-3.57,0-6.94-3.61-6.94-12.76v-7.95l1.41-21.79h-.47c-1.48,15.41-4.92,42.49-15.96,42.49-8.55,0-10.31-11.07-10.31-25.64Z"/>
    <path d="M252.72,93.63c-.4,0-.4-.84,0-.84,5.12-.12,5.25-3.37,5.25-12.76v-28.05c0-8.67-1.08-14.33-4.51-14.33-.2-.12-.2-.84,0-.96,3.17-1.08,7.41-3.13,9.43-5.18.13-.24.27-.24.4,0l-.07,20.58-1.08,33.95h.47c1.82-41.89,8.55-54.77,15.09-54.77,5.46,0,9.56,4.82,9.3,29.37v.24c1.28-16.61,4.92-29.61,11.25-29.61,6.8,0,8.82,10.35,10.64,26.96l2.36,22.03c1.01,9.15,1.21,12.4,6.33,12.52.4,0,.4.84,0,.84-3.5,0-4.11-.36-5.32-.36h-5.19c-1.21,0-1.82.36-5.32.36-.4,0-.4-.84,0-.84,5.12-.12,5.19-3.37,4.18-12.52l-2.22-20.47c-1.62-14.81-3.23-25.16-7-25.16-6.06,0-9.16,16.37-9.83,38.4l-.07,6.98c-.07,9.39,0,12.64,5.12,12.76.4,0,.4.84,0,.84-3.5,0-4.11-.36-5.32-.36h-4.92c-1.21,0-1.82.36-5.32.36-.4,0-.4-.84,0-.84,5.12-.12,5.25-3.37,5.25-12.76v-15.41c0-17.09.13-30.1-5.93-30.1-5.73,0-10.78,16.25-12.46,50.56.2,5.42,1.21,7.58,5.26,7.58.4,0,.4.84,0,.84-3.5.12-4.11-.24-5.32-.24h-5.12c-1.21,0-1.82.36-5.32.36ZM263.1,80.03c0,.96,0,1.92.07,2.89l-.07-2.89Z"/>
    <path d="M339.4,93.63c-.47,0-.47-.84,0-.84,5.39-.12,6.53-1.56,6.53-18.18v-39.12c-4.51-4.81-7.81-11.56-7.81-18.18,0-5.3,1.28-8.07,3.84-8.31h16.1c11.05,0,17.92,4.57,17.92,17.33,0,7.95-5.46,14.09-13.07,15.41,10.24,2.05,21.89,8.31,21.89,25.64s-10.64,25.88-22.16,25.88h-16.64c-1.21,0-2.16.36-6.6.36ZM345.94,34.16v-11.68c-.2-9.39-1.62-12.52-3.97-12.52-2.09.36-3.23,2.65-3.23,7.34,0,6.14,3.03,12.28,7.21,16.85ZM369.24,26.22c0-12.28-4.78-16.13-12.33-16.13h-4.51c-.2,1.44-.61,4.57-.61,14.69v14.33c2.09,1.2,4.38,2.05,6.4,2.17h.13c9.29,0,10.91-4.69,10.91-15.05ZM351.8,40.18v32.5c0,9.15.4,16.01,1.01,19.5h8.89c11.45,0,16.37-12.28,16.37-24.68,0-17.33-6.87-24.56-19.87-25.16-2.02-.12-4.31-.96-6.4-2.17Z"/>
    <path d="M417.33,84.72l-2.29-21.91c-.54,15.29-6.87,32.14-16.84,32.14-4.85,0-8.55-4.69-8.55-12.64,0-16.85,24.72-16.49,24.11-32.02-1.35-11.56-4.72-17.82-8.28-17.82-9.7,0-14.55,13.36-18.32,33.1-.07.24-.2.48-.4.36-.2-.12-.2-.48-.13-.72,4.31-22.03,9.3-33.95,19.8-33.95,5.59,0,11.05,2.65,12.8,20.22l3.37,33.82c.34,3.25,1.15,6.98,2.63,6.98,1.62,0,2.56-2.77,3.57-5.54.2-.48.67-.12.54.48-1.41,4.21-2.83,7.34-5.93,7.34-4.18,0-5.59-5.42-6.06-9.87ZM402.44,90.74c6.73,0,12.12-16.49,12.19-32.02l-.54-5.06c-2.09,11.56-18.66,11.32-18.66,27.45,0,6.14,3.03,9.63,7.01,9.63Z"/>
    <path d="M433.36,33.56h-5.12c-.34,0-.34-.96,0-1.08,5.52-3.25,8.96-9.15,10.17-19.98.07-.48.34-.36.34,0v19.98h14.82c.47,0,.61,1.08,0,1.08h-14.89v38.04c0,10.71,2.42,20.71,7.88,20.71,6.53,0,10.24-11.92,13.2-27.09.2-.84.81-.36.61.36-2.76,13.96-6.53,28.89-15.49,28.89-6.33,0-11.52-6.98-11.52-19.38v-41.53Z"/>
    <path d="M454.44,93.63c-.4,0-.4-.84,0-.84,5.12-.12,5.25-3.37,5.25-12.76l-.07-62.24c0-6.38-.88-10.71-5.12-10.11-.34.12-.34-.6,0-.72,2.63-1.32,7.54-4.57,9.97-6.86.14-.24.4,0,.4.48v17.21l.14,26.24-1.15,42.01h.34c2.36-39.24,9.29-54.17,16.23-54.17s9.3,8.79,10.85,26.6l1.89,21.67c.81,9.27,1.01,12.52,6.13,12.64.4,0,.4.84,0,.84-3.5,0-4.11-.36-5.32-.36h-5.19c-1.21,0-1.82.36-5.32.36-.4,0-.4-.84,0-.84,5.12-.12,5.19-3.37,4.38-12.64l-2.09-23.47c-1.55-17.21-3.64-21.91-7.14-21.91-6.53,0-11.99,20.46-13.61,49.6.13,6.02.88,8.31,5.19,8.43.4,0,.4.84,0,.84-3.5,0-4.11-.36-5.32-.36h-5.12c-1.21,0-1.82.36-5.32.36Z"/>
  </g>
  <path d="M3.86,91.53c159.75-.71,336.45-1.62,496.14.86,0,0,0,2.47,0,2.47-148.58,2.06-316.43.17-465.17-.39,0,0-30.96-.43-30.96-.43,0,0-.7,0-.7,0,0,0,0-2.49,0-2.49h.7Z"/>
  <path class="st1" d="M93.6,34.86c19.95,5.42,1.39,24.82,1.39,24.82"/>
  <path class="st1" d="M21.87,9.58c26.14,9.7,7.83,26.63,3.41,36.56s-.51,9.05-.51,9.05"/>
  <path class="st0" d="M62.7,55.85c4.17-17.38,16.59-14.97,13.6-1.5"/>
  <path class="st1" d="M216.6,63.3c.76,19.07,22.86-32.27,22.86-15.42"/>
  <path class="st1" d="M367.89,44.34c20.71,16.02-34.6,46.94-16.54,47.17"/>
  <path class="st1" d="M403.25,65.55c-8.59,9.48,13.13-1.13,9.22,10.83"/>
  <path class="st1" d="M437.22,65.55c0,21.22,22.23-17.38,21.09,7"/>
  <path class="st1" d="M467.28,59.91c.13,25.28,14.27-34.53,17.81-11.28"/>
  <path class="st1" d="M135.15,53.89c.17-21.67,15.24,30.44,15.66,1.3"/>
  <path class="st1" d="M156.28,59.31c0-24.83,19.62,41.12,17.76,4.99"/>
  <path class="st1" d="M192.73,42.08c5.75-3.05,1.85,3.19,2.46,3.72"/>
  <path class="st1" d="M282.71,62.05c-.32-15.23-18.44,34.19-18.37,4.29"/>
  <path class="st1" d="M304.05,58.56c.38-24.04-19.2,43.67-18.06,14.11"/>
</svg>