<?xml version="1.0" encoding="UTF-8"?>
<svg id="_レイヤー_2のコピー" data-name="レイヤー_2のコピー" xmlns="http://www.w3.org/2000/svg" version="1.1" xmlns:xlink="http://www.w3.org/1999/xlink" viewBox="0 0 283.46 283.46">
  <!-- Generator: Adobe Illustrator 29.6.1, SVG Export Plug-In . SVG Version: 2.1.1 Build 9)  -->
  <defs>
    <style>
      .st0 {
        fill: #fff;
      }

      .st1 {
        fill: none;
      }

      .st2 {
        clip-path: url(#clippath-1);
      }

      .st3 {
        fill: #231815;
      }

      .st4 {
        clip-path: url(#clippath);
      }
    </style>
    <clipPath id="clippath">
      <polygon class="st1" points="51.22 188.83 51.22 188.83 87.69 188.83 87.69 215.19 51.22 215.19 51.22 188.83"/>
    </clipPath>
    <clipPath id="clippath-1">
      <polygon class="st1" points="231.1 190.5 231.1 190.5 194.64 189.82 194.15 216.18 230.61 216.86 231.1 190.5"/>
    </clipPath>
  </defs>
  <g>
    <g id="_x3C_リピートミラー_x3E_">
      <g class="st4">
        <g>
          <line class="st0" x1="86.92" y1="206.27" x2="86.92" y2="215.19"/>
          <path class="st3" d="M87.42,206.27c.34,2.97.39,5.96,0,8.93,0,0-1,0-1,0-.12-.74-.17-1.49-.21-2.23-.1-2.24-.06-4.47.21-6.7,0,0,1,0,1,0h0Z"/>
        </g>
        <g>
          <line class="st0" x1="83.75" y1="206.29" x2="83.75" y2="214.29"/>
          <path class="st3" d="M84.25,206.29c.51,2.66.46,5.34,0,8,0,0-1,0-1,0-.46-2.67-.51-5.34,0-8,0,0,1,0,1,0h0Z"/>
        </g>
        <g>
          <line class="st0" x1="80.57" y1="205.71" x2="80.57" y2="213.71"/>
          <path class="st3" d="M81.07,205.71c.3,2.66.42,5.35,0,8,0,0-1,0-1,0-.13-.67-.17-1.33-.23-2-.09-2.01-.03-4,.23-6,0,0,1,0,1,0h0Z"/>
        </g>
        <g>
          <line class="st0" x1="77.39" y1="204.33" x2="77.39" y2="212.33"/>
          <path class="st3" d="M77.89,204.33c.3,2.66.42,5.35,0,8,0,0-1,0-1,0-.23-1.33-.28-2.66-.26-4,.02-1.33.08-2.67.26-4h1Z"/>
        </g>
        <g>
          <line class="st0" x1="74.22" y1="203.39" x2="74.22" y2="211.39"/>
          <path class="st3" d="M74.72,203.39c.3,2.66.42,5.35,0,8,0,0-1,0-1,0-.23-1.33-.28-2.66-.26-4,.02-1.33.08-2.67.26-4h1Z"/>
        </g>
        <g>
          <line class="st0" x1="71.04" y1="202.97" x2="71.04" y2="209.31"/>
          <path class="st3" d="M71.54,202.97c.3,2.11.42,4.25,0,6.34,0,0-1,0-1,0-.23-1.05-.28-2.11-.26-3.17.02-1.06.08-2.11.26-3.17h1Z"/>
        </g>
        <g>
          <line class="st0" x1="67.87" y1="201.3" x2="67.87" y2="207.39"/>
          <path class="st3" d="M68.37,201.3c.3,2.02.42,4.08,0,6.09,0,0-1,0-1,0-.23-1.01-.28-2.02-.26-3.04.02-1.01.08-2.03.26-3.04h1Z"/>
        </g>
        <g>
          <line class="st0" x1="64.69" y1="198.62" x2="64.69" y2="206.62"/>
          <path class="st3" d="M65.19,198.62c.3,2.66.42,5.35,0,8,0,0-1,0-1,0-.23-1.33-.28-2.66-.26-4,.02-1.33.08-2.67.26-4h1Z"/>
        </g>
        <g>
          <line class="st0" x1="61.51" y1="197.67" x2="61.51" y2="204.33"/>
          <path class="st3" d="M62.01,197.67c.3,2.21.42,4.46,0,6.66,0,0-1,0-1,0-.13-.55-.17-1.11-.23-1.66-.09-1.67-.03-3.33.23-4.99,0,0,1,0,1,0h0Z"/>
        </g>
        <g>
          <line class="st0" x1="58.34" y1="195.38" x2="58.34" y2="201.3"/>
          <path class="st3" d="M58.84,195.38c.3,1.97.42,3.97,0,5.92,0,0-1,0-1,0-.23-.98-.28-1.96-.26-2.96.02-.99.08-1.97.26-2.96h1Z"/>
        </g>
        <g>
          <line class="st0" x1="55.16" y1="191.38" x2="55.16" y2="199.39"/>
          <path class="st3" d="M55.66,191.38c.3,2.66.42,5.35,0,8,0,0-1,0-1,0-.23-1.33-.28-2.66-.26-4,.02-1.33.08-2.67.26-4h1Z"/>
        </g>
        <g>
          <line class="st0" x1="51.99" y1="188.83" x2="51.99" y2="195.77"/>
          <path class="st3" d="M52.49,188.83c.3,2.31.42,4.65,0,6.94,0,0-1,0-1,0-.13-.58-.17-1.16-.23-1.74-.09-1.74-.03-3.47.23-5.21,0,0,1,0,1,0h0Z"/>
        </g>
      </g>
    </g>
    <g id="_x3C_リピートミラー_x3E_1" data-name="_x3C_リピートミラー_x3E_">
      <g class="st2">
        <g>
          <line class="st0" x1="195.09" y1="207.27" x2="194.92" y2="216.2"/>
          <path class="st3" d="M194.59,207.26c-.39,2.96-.5,5.95-.17,8.93,0,0,1,.02,1,.02.13-.74.19-1.48.25-2.23.14-2.23.14-4.46-.09-6.7,0,0-1-.02-1-.02h0Z"/>
        </g>
        <g>
          <line class="st0" x1="198.26" y1="207.35" x2="198.11" y2="215.35"/>
          <path class="st3" d="M197.76,207.34c-.56,2.65-.56,5.33-.15,8,0,0,1,.02,1,.02.51-2.66.61-5.33.15-8,0,0-1-.02-1-.02h0Z"/>
        </g>
        <g>
          <line class="st0" x1="201.45" y1="206.83" x2="201.3" y2="214.83"/>
          <path class="st3" d="M200.95,206.82c-.35,2.66-.52,5.34-.15,8,0,0,1,.02,1,.02.14-.66.2-1.33.26-2,.12-2,.1-4-.11-6.01,0,0-1-.02-1-.02h0Z"/>
        </g>
        <g>
          <line class="st0" x1="204.65" y1="205.51" x2="204.5" y2="213.51"/>
          <path class="st3" d="M204.15,205.5c-.35,2.66-.52,5.34-.15,8,0,0,1,.02,1,.02.26-1.32.33-2.66.33-4,0-1.33-.03-2.67-.19-4.01l-1-.02h0Z"/>
        </g>
        <g>
          <line class="st0" x1="207.84" y1="204.63" x2="207.69" y2="212.63"/>
          <path class="st3" d="M207.34,204.62c-.35,2.66-.52,5.34-.15,8,0,0,1,.02,1,.02.26-1.32.33-2.66.33-4,0-1.33-.03-2.67-.19-4.01l-1-.02h0Z"/>
        </g>
        <g>
          <line class="st0" x1="211.02" y1="204.26" x2="210.91" y2="210.61"/>
          <path class="st3" d="M210.52,204.25c-.34,2.1-.5,4.24-.12,6.34,0,0,1,.02,1,.02.25-1.04.32-2.1.32-3.17,0-1.06-.04-2.12-.2-3.18l-1-.02h0Z"/>
        </g>
        <g>
          <line class="st0" x1="214.23" y1="202.66" x2="214.12" y2="208.75"/>
          <path class="st3" d="M213.73,202.65c-.34,2.02-.49,4.07-.11,6.09,0,0,1,.02,1,.02.25-1,.32-2.02.32-3.04,0-1.01-.04-2.03-.2-3.05l-1-.02h0Z"/>
        </g>
        <g>
          <line class="st0" x1="217.46" y1="200.04" x2="217.31" y2="208.04"/>
          <path class="st3" d="M216.96,200.03c-.35,2.66-.52,5.34-.15,8,0,0,1,.02,1,.02.26-1.32.33-2.66.33-4,0-1.33-.03-2.67-.19-4.01l-1-.02h0Z"/>
        </g>
        <g>
          <line class="st0" x1="220.65" y1="199.14" x2="220.52" y2="205.8"/>
          <path class="st3" d="M220.15,199.13c-.34,2.21-.5,4.45-.12,6.66,0,0,1,.02,1,.02.14-.55.19-1.11.26-1.66.12-1.67.09-3.33-.13-5,0,0-1-.02-1-.02h0Z"/>
        </g>
        <g>
          <line class="st0" x1="223.87" y1="196.92" x2="223.76" y2="202.84"/>
          <path class="st3" d="M223.37,196.91c-.34,1.96-.49,3.96-.11,5.92,0,0,1,.02,1,.02.25-.97.32-1.96.31-2.95,0-.99-.04-1.97-.21-2.96l-1-.02h0Z"/>
        </g>
        <g>
          <line class="st0" x1="227.12" y1="192.98" x2="226.97" y2="200.98"/>
          <path class="st3" d="M226.62,192.97c-.35,2.66-.52,5.34-.15,8,0,0,1,.02,1,.02.26-1.32.33-2.66.33-4,0-1.33-.03-2.67-.19-4.01l-1-.02h0Z"/>
        </g>
        <g>
          <line class="st0" x1="230.34" y1="190.48" x2="230.21" y2="197.43"/>
          <path class="st3" d="M229.84,190.48c-.35,2.3-.51,4.64-.13,6.94,0,0,1,.02,1,.02.14-.58.2-1.15.26-1.73.12-1.74.09-3.47-.13-5.21,0,0-1-.02-1-.02h0Z"/>
        </g>
      </g>
    </g>
  </g>
  <g>
    <path class="st3" d="M244.21,118.07c.09-8.11-.25-16.19-3.55-23.82-4.79-12.13-14.89-21.97-26.97-26.79-6.05-2.41-12.57-3.61-19.05-3.56-34.52.54-69.66.69-104.21-.21-2.25-.07-4.99.05-7.27.13-2.23.34-5.1.56-7.24,1.23-17.6,4.03-32.11,18.72-36.26,36.24-1.68,6.2-1.5,12.86-1.35,19.16.23,11.14.32,26.92.06,37.92,0,.22,0,.43.01.64h-.1c.05,1.22.14,2.44.25,3.66.15,1.98.41,3.93.79,5.82,1.79,9.97,5.79,19.47,11.87,27.66,10.27,14.63,27.49,23.99,45.49,23.62,1.59.03,5.85-.16,7.42-.17,13.11-.38,26.22-.06,39.33-.14,9.81-.18,29.52-.29,39.33-.21,28.11.66,53.24-16.52,59.59-44.46.26-1.01.48-2.03.68-3.05.35-1.28.65-2.57.89-3.88.81-4.43.83-9.02.71-13.52.65-12.09,1.15-24.19-.42-36.28ZM40.44,120.46c.09-4.72.03-9.37.94-13.96,1.31-7.52,4.62-14.71,9.27-20.72,8.31-10.92,21.46-17.92,35.13-18.82,8.52-.47,24.41-.48,33.07-.73,25.26-.42,50.53.04,75.79.31,18.58.09,36,11.93,43.71,28.71,2.6,5.58,4.15,11.7,4.37,17.92.06,1.54.11,3.08.15,4.63-1.63,12.27-1.11,24.55-.45,36.82-.14,4.27-.45,8.47-1.46,12.62-5.23,21.17-24.42,36.46-46.13,37.13-35.32,1.17-71.27,1.37-106.57.81-18.58-.15-35.82-12.31-43.48-29.03-2.56-5.56-4.09-11.64-4.3-17.82-.24-6.27-.31-12.63-.29-18.93l.26-18.95ZM192.38,216.03c-3.21.47-6.36.52-9.63.52-9.79.08-29.54-.03-39.33-.21-13.11-.08-26.22.24-39.33-.14-6.3-.11-12.95-.37-19.03-2.07-15.71-3.89-29.24-13.36-37.17-26.38,9.1,12.19,23.83,19.88,40.36,19.63,31.36-.39,63.35-.56,94.74.52,3.21.07,11.24.34,14.31.21l2.47-.07s2.45-.31,2.45-.31c2.31-.21,5-.95,7.26-1.5,7.42-2.18,14.08-6.1,19.56-11.24-9.27,11.05-22.32,18.97-36.65,21.04Z"/>
    <path class="st3" d="M55.29,142.11c-.07,5.21-.3,10.39-.46,15.63-.1,5.45,1.07,11,3.59,15.96,5.73,11.24,18.3,18.16,30.83,17.63,35.11-.83,70.26-1.68,105.38-1.04,5.35.09,10.84-.8,15.88-3.1,9.97-4.87,16.65-15.43,17.48-26.39.14-2.33.05-5.65,0-7.97-.1-4.51-.07-11.05-.09-15.61.11-7.59.42-15.89.74-23.44.38-10.5-4.56-21.3-13.2-27.47-5.08-3.82-11.33-6.09-17.67-6.54-.92-.02-2.17-.09-3.16-.09l-.98.03-3.9.13c-4.93.16-18.34.64-23.42.8-18.01.66-36.64.9-54.64.07-7.54-.36-15.93-.71-23.42-.94-11.34-.33-22.47,5.6-28.76,15.04-9.05,13.64-4.28,24.78-4.16,39.49,0,0-.05,7.81-.05,7.81ZM57.7,118.69s.15-3.9.15-3.9c-.04-11.22,6.33-22,16.21-27.3,4.35-2.31,9.25-3.58,14.2-3.64,0,0,31.22-.54,31.22-.54,20.49-.28,41.98.11,62.45.44,4.37.1,11.16.08,15.45.36,9.85.91,18.82,7.01,23.69,15.56,2.39,4.29,3.82,9.15,4.02,14.13.3,7.49.25,15.86.36,23.4-.18,7.45.04,15.88-.61,23.26-1.29,9.89-7.55,18.48-16.09,23.39-4.26,2.61-9.08,4.23-14.11,4.42-32.83.56-68.52-.23-101.48-.75-1.2-.04-4.69-.03-5.8-.14-10.49-.24-20.32-6.53-25.53-15.56-2.43-4.27-3.92-9.12-4.18-14.12-.22-5.18-.41-10.4-.47-15.6-.28-7.3,0-16.14.53-23.42Z"/>
    <path class="st3" d="M82.84,177.32v1l14.65.18c32.5.24,70.13.21,102.55-.18v-1c-37.67-.42-79.51-.49-117.2,0Z"/>
    <path class="st3" d="M64.78,133.12c.35,0,.89-.07,1.62-.21.73-.14,1.27-.21,1.62-.21.42,0,1.04,0,1.88-.02.83-.02,1.46-.02,1.88-.02.99,0,1.77.02,2.34.06,2.27.17,3.49.26,3.67.26.39,0,.59-.25.59-.76,0-.42-.12-.71-.35-.87-.12-.09-.4-.18-.83-.29-.5-.1-1.01-.19-1.51-.29-.56-.16-.84-.45-.84-.87s0-1,.02-1.72c.01-.72.02-1.29.02-1.72,0-1.24-.01-2.23-.04-3,.25.06.49.1.72.1,1.35,0,2.48-.55,3.39-1.66,1.06-1.3,1.59-3.14,1.59-5.53,0-2.25-.46-4.11-1.37-5.59-.87-1.4-1.93-2.13-3.18-2.19-2.57-.13-3.97-.19-4.21-.19-.34,0-.85,0-1.53.02s-1.19.02-1.53.02c-.36,0-.89-.02-1.59-.05s-1.23-.05-1.59-.05c-.69,0-1.03.33-1.03.98,0,.72.3,1.09.9,1.09.11,0,.29-.01.52-.03s.41-.03.52-.03c.76,0,1.14.64,1.14,1.93s-.01,3.24-.03,5.83-.03,4.53-.03,5.83c0,.59.01,1.48.04,2.66s.04,2.07.04,2.66c0,.66-.07,1.06-.21,1.21-.02.02-.26.1-.72.25-.46.15-.93.28-1.39.41-.71.28-1.07.63-1.07,1.06,0,.63.18.95.54.95ZM74.68,110.82c.07-.1.26-.15.58-.16.74-.02,1.37.65,1.86,2.03.45,1.22.67,2.55.67,3.99s-.17,2.55-.52,3.43c-.38.99-.93,1.48-1.64,1.48-.27,0-.53-.06-.77-.19,0-.11,0-.36,0-.76v-.9c0-.43-.02-1.08-.05-1.96-.04-.88-.05-1.53-.05-1.96,0-.47-.03-1.17-.09-2.11-.06-.93-.09-1.64-.09-2.11,0-.42.03-.68.1-.77Z"/>
    <path class="st3" d="M86.24,129.76c-.13.24-.39.43-.76.6-.45.19-.99.39-1.63.58-.49.15-.73.51-.74,1.08,0,.26.07.48.2.66.13.18.28.27.42.27,1.18-.23,2.39-.34,3.62-.34.52,0,1.09.01,1.72.03,3.9.19,6.07.33,6.52.42.15,0,.29-.07.43-.21.17-.18.25-.42.25-.73,0-.49-.13-.85-.36-1.06-.15-.13-.42-.25-.81-.35-.45-.12-.84-.23-1.18-.32-.36-.01-.52-.3-.47-.85.06-.53.12-1.05.18-1.58.08-.83.13-1.56.14-2.19.01-.64-.01-2-.07-4.06.83.41,1.5,1.26,2,2.55.37.96.67,2.22.89,3.79.13,1.07.26,2.15.39,3.24.15,1.03.42,1.54.8,1.53.23-.01.62-.04,1.14-.1.48-.04.74-.06.78-.06.43.01,1.07.06,1.92.15s1.5.14,1.92.15c.13,0,.3-.06.51-.18.26-.16.39-.35.39-.56-.02-.78-.18-1.27-.46-1.45-1.01-.67-1.59-1.2-1.73-1.6-1.21-3.46-2.81-6.53-4.8-9.2.51-.66.85-1.14,1.02-1.45.47-.84.71-1.69.72-2.55.02-2.5-.49-4.37-1.54-5.61-.81-.95-2-1.54-3.56-1.79-.3-.04-1.55-.1-3.73-.18-.56-.02-1.42,0-2.58.06s-2.02.09-2.59.06c-.26-.05-.49-.08-.69-.08-.77,0-1.15.31-1.16.93,0,.52.07.83.23.94.05.04.29.08.71.1.05,0,.28-.02.67-.06.42-.04.64-.06.68-.06.4,0,.67.21.79.64.09.29.13.86.14,1.72,0,.25-.04,1.21-.13,2.9-.09,1.72-.14,3.23-.14,4.55,0,.51,0,1.02.02,1.53.04,1,.07,2,.11,2.99.05,1.38.07,2.61.06,3.69,0,.68-.1,1.16-.27,1.45ZM93.79,110.77c.28,0,.57.15.88.45,1.42,1.38,2.12,3.19,2.09,5.43-.02,1.69-.38,2.52-1.08,2.5-.97-.03-1.66-.16-2.06-.39-.07-3.06-.16-5.43-.25-7.09,0-.6.15-.9.42-.9Z"/>
    <path class="st3" d="M105.29,108.1s0,0,.01,0c-.02,0-.02,0-.01,0Z"/>
    <path class="st3" d="M104.81,109.01c0,.47.41.8,1.23.98,1.01.2,1.6.39,1.76.55.47.47.7,1.11.7,1.92,0,.3-.02,1.56-.07,3.77s-.07,3.33-.07,3.35c0,1.57.04,3.25.11,5.04.08,2.26.13,3.63.14,4.13.03,1.5-.38,2.28-1.24,2.34-.56.03-.95.05-1.19.05-.34.02-.57.07-.69.15-.25.14-.37.43-.38.87,0,.19.04.39.15.6.12.24.24.35.38.35l1.97-.16c1.85-.16,4.26-.24,7.23-.24.5,0,1.46.03,2.88.1s2.38.1,2.88.1c.91,0,1.4-.3,1.47-.89.15-1.31.3-2.62.46-3.93.13-1.38.2-2.7.2-3.98,0-.2-.04-.42-.11-.66-.09-.32-.22-.48-.38-.48-.22,0-.37.25-.44.74s-.16.88-.28,1.14c-.41.93-1.08,1.98-2.01,3.14-1.38,1.71-2.52,2.56-3.43,2.56-.25,0-.38-.26-.38-.77,0,.1.04-1.13.13-3.67.08-2.54.13-4.43.14-5.67.14-.29.25-.44.34-.44.63,0,1.19.5,1.68,1.5.43.88.64,1.71.64,2.5v.58c0,.24,0,.41,0,.52.01.38.14.56.37.56s.39-.41.49-1.22c.25-1.9.37-3.24.36-4.01-.01-1.21-.19-1.92-.53-2.13-.46-.28-.97-.42-1.54-.42-.05,0-.26.04-.65.13-.38.09-.6.13-.65.13-.4,0-.61-.34-.61-1.03,0-.77-.02-1.93-.05-3.47-.02-.77-.03-1.47-.03-2.11,0-.16.04-.32.12-.49.08-.17.18-.25.28-.25.88,0,1.7.27,2.43.82.95.69,1.59,1.73,1.92,3.13.06.27.1.61.11,1.01,0,.31.06.55.17.73.11.18.22.25.35.23.27-.05.45-.41.53-1.06.19-1.55.29-2.81.29-3.76,0-1.25-.01-2.03-.04-2.32-.11-.99-.37-1.48-.78-1.48-.98,0-2.08.06-3.32.17-1.23.11-3.07.17-5.52.17-1.75,0-3.4-.06-4.97-.17-1.35-.1-2.05-.15-2.12-.17-.31,0-.47.31-.47.92Z"/>
    <path class="st3" d="M149.55,110.24l1.79-.16c.38-.11.57-.53.57-1.26,0-.2-.08-.39-.25-.56-.14-.15-.27-.23-.4-.23-.4,0-1,.05-1.79.14s-1.39.14-1.79.14c-.25,0-.63-.01-1.13-.03s-.88-.03-1.13-.03c-.56,0-1.12.68-1.7,2.04-1.77,4.2-2.69,6.38-2.76,6.55-.32.8-.63,1.62-.95,2.43-.54,1.32-.89,1.98-1.04,1.98-.04,0-.52-1.12-1.44-3.35-1.12-2.71-2.05-4.79-2.78-6.25-1.12-2.26-1.95-3.42-2.47-3.48-.09-.01-.23-.02-.41-.02-.26,0-.64.02-1.16.05s-.9.05-1.16.05c-.28,0-.91-.04-1.88-.13-.79-.06-1.4-.07-1.85-.02-.59.06-.88.48-.88,1.26,0,.21.08.43.25.64.17.21.32.32.44.32.15,0,.37.02.65.06.28.04.5.06.65.06,1.06,0,1.59,2.29,1.59,6.87,0,2.15-.06,4.5-.18,7.07-.18,3.77-.42,5.82-.75,6.15-.66.34-1.22.59-1.69.74-.5.21-.76.56-.76,1.05,0,.58.25.87.76.87.35,0,.91-.09,1.68-.26.77-.17,1.33-.26,1.69-.26.39,0,.97.03,1.74.1s1.36.1,1.74.1c.54,0,.81-.27.81-.82,0-.58-.25-.95-.75-1.11-.95-.31-1.7-1.18-2.25-2.59-.52-1.32-.77-2.9-.77-4.74,0-.51.11-.76.32-.76s1.17,1.72,2.87,5.17,2.66,5.17,2.9,5.17c.2,0,1.04-1.81,2.52-5.43,1.48-3.62,2.28-5.43,2.4-5.43.06,0,.14.56.24,1.69.25,3.01.37,4.85.37,5.51,0,.37-.11.68-.33.93-.17.2-.34.32-.5.35-.82.15-1.27.24-1.36.26-.43.1-.69.17-.77.23-.28.17-.41.52-.41,1.03,0,.2.07.37.22.5.12.12.24.17.36.16,2.96-.15,5.19-.25,6.66-.29.32-.02.65-.03,1.01-.03.56,0,1.39.04,2.5.13s1.94.13,2.49.13c.58,0,.87-.24.87-.73,0-.4-.06-.66-.17-.79-.06-.09-.23-.16-.48-.23-1.12-.3-1.72-.47-1.79-.5-.64-.29-.98-.75-.99-1.39-.02-.85-.01-1.92.04-3.22.06-1.54.09-2.62.09-3.24,0-.68-.11-4.31-.33-10.91-.04-1,.3-1.56,1-1.68Z"/>
    <path class="st3" d="M156.33,130.9c-.59.12-1.04.19-1.34.23-.41.11-.65.18-.71.23-.2.14-.3.42-.31.84,0,.28.07.48.22.61.09.08.19.11.3.11.54-.01,1.72-.07,3.53-.18,1.5-.09,2.68-.11,3.54-.08,2.44.11,4.38.19,5.82.26.45.01.68-.31.69-.95.01-.66-.35-.99-1.1-1.02-.05,0-.27-.06-.66-.18-.39-.12-.61-.18-.66-.18-.4-.01-.67-.16-.81-.44s-.2-.81-.2-1.58c.01-.93.05-2.5.11-4.69.06-2,.1-3.56.1-4.67,0-1.29-.04-2.84-.12-4.66-.08-1.76-.11-2.71-.11-2.84,0-.6.14-1.03.4-1.27.22-.2.66-.36,1.31-.47.6-.1.93-.16.98-.19.3-.13.45-.42.46-.87,0-.49-.23-.75-.72-.76-.95-.03-2.93.05-5.94.24-.06,0-1.11-.05-3.13-.15-1.05-.05-2.09-.11-3.14-.16-.53-.02-.8.2-.81.66-.01.44.04.75.15.92.11.17.35.26.71.27.44.02.82.04,1.15.06.51.02.87.2,1.08.53.23.37.34,1,.33,1.92-.08,3.89-.12,6.37-.12,7.45,0,1.01.03,2.62.1,4.82.06,2.04.08,3.62.07,4.74,0,.75-.4,1.23-1.17,1.43Z"/>
    <path class="st3" d="M181.25,110.43c.28-.01.54-.12.77-.32.29-.27.44-.63.44-1.08,0-.51-.26-.76-.77-.76-.18,0-.49.02-.91.06-.4.04-.71.05-.92.04-.57-.01-1.29-.01-2.18,0h-2.18c-.61,0-1.52-.04-2.74-.11-1.22-.08-2.13-.11-2.73-.11s-.86.3-.86.9c0,.53.09.88.26,1.06.16.15.5.27,1.03.37.76.13,1.23.25,1.41.35.46.28.69.82.69,1.61,0,.68-.02,1.7-.07,3.06-.05,1.36-.07,2.39-.07,3.08,0,.47,0,.93.02,1.39.12,4.49,1.04,7.89,2.78,10.2,1.55,2.07,3.59,3.11,6.12,3.11,2.17,0,3.89-1.68,5.15-5.04,1.11-2.97,1.67-6.54,1.67-10.72,0-2.04.03-3.36.08-3.96.09-1.05.21-1.77.33-2.16.19-.54.52-.93,1.01-1.19.33-.14.67-.28,1-.44.36-.26.53-.73.51-1.42-.18-.34-.34-.52-.47-.52-.36,0-.91.07-1.63.22-.72.15-1.27.22-1.65.22l-3.5-.05c-.55,0-.83.42-.83,1.26,0,.47.21.78.64.92l.97.19c.6.19,1.05,1.48,1.35,3.85.21,1.67.32,3.37.32,5.11,0,2.19-.27,4.15-.82,5.87-.64,2.05-1.52,3.08-2.62,3.08-.79,0-1.45-.7-1.98-2.1-.47-1.26-.71-2.66-.71-4.21,0-.44,0-1.11-.02-2s-.02-1.56-.02-2c0-.68-.03-1.69-.07-3.04-.05-1.35-.08-2.36-.08-3.04,0-1.11.42-1.67,1.27-1.69Z"/>
    <path class="st3" d="M197.19,108.19c-.52.03-.9.05-1.16.05-.28,0-.91-.04-1.88-.13-.79-.06-1.4-.07-1.85-.02-.59.06-.88.48-.88,1.26,0,.21.08.43.25.64.17.21.32.32.44.32.15,0,.37.02.65.06.28.04.5.06.66.06,1.06,0,1.59,2.29,1.59,6.87,0,2.15-.06,4.5-.18,7.07-.18,3.77-.42,5.82-.75,6.15-.66.34-1.22.59-1.69.74-.5.21-.76.56-.76,1.05,0,.58.25.87.76.87.35,0,.91-.09,1.68-.26.77-.17,1.33-.26,1.69-.26.39,0,.97.03,1.74.1s1.36.1,1.75.1c.54,0,.81-.27.81-.82,0-.58-.25-.95-.75-1.11-.95-.31-1.7-1.18-2.25-2.59-.52-1.32-.77-2.9-.77-4.74,0-.51.11-.76.32-.76s1.17,1.72,2.87,5.17,2.66,5.17,2.9,5.17c.2,0,1.04-1.81,2.52-5.43,1.48-3.62,2.28-5.43,2.4-5.43.06,0,.14.56.24,1.69.25,3.01.37,4.85.37,5.51,0,.37-.11.68-.33.93-.17.2-.34.32-.5.35-.82.15-1.27.24-1.36.26-.43.1-.69.17-.77.23-.28.17-.41.52-.41,1.03,0,.2.07.37.22.5.12.12.24.17.36.16,2.96-.15,5.19-.25,6.66-.29.32-.02.65-.03,1.01-.03.56,0,1.39.04,2.5.13s1.94.13,2.49.13c.58,0,.87-.24.87-.73,0-.4-.06-.66-.17-.79-.06-.09-.23-.16-.48-.23-1.12-.3-1.72-.47-1.79-.5-.64-.29-.98-.75-.99-1.39-.02-.85-.01-1.92.04-3.22.06-1.54.09-2.62.09-3.24,0-.68-.11-4.31-.33-10.91-.04-1,.3-1.56,1-1.68l1.79-.16c.38-.11.57-.53.57-1.26,0-.2-.08-.39-.25-.56-.14-.15-.27-.23-.4-.23-.4,0-1,.05-1.79.14s-1.39.14-1.79.14c-.25,0-.63-.01-1.13-.03s-.88-.03-1.13-.03c-.56,0-1.12.68-1.7,2.04-1.77,4.2-2.69,6.38-2.76,6.55-.32.8-.63,1.62-.95,2.43-.54,1.32-.89,1.98-1.04,1.98-.04,0-.52-1.12-1.44-3.35-1.12-2.71-2.05-4.79-2.78-6.25-1.12-2.26-1.95-3.42-2.47-3.48-.09-.01-.23-.02-.41-.02-.26,0-.64.02-1.16.05Z"/>
    <path class="st3" d="M98.39,143.43c-.02.63.14.95.47.95.26,0,.63-.02,1.1-.06s.83-.06,1.1-.06c.16,0,.31.17.44.5.13.33.19.68.19,1.04,0,.9-.03,2.24-.09,4.02s-.09,3.13-.09,4.02v8.79c0,.88-.16,1.32-.47,1.32-.21,0-.53-.03-.96-.09s-.75-.09-.96-.09c-.4,0-.6.39-.6,1.17,0,.83.55,1.25,1.66,1.25.52,0,1.29-.02,2.32-.05s1.8-.05,2.32-.05c.41,0,1.04.02,1.89.05.78.03,1.41.05,1.89.05h1.48c1.24,0,2.37-.56,3.41-1.69,1.2-1.31,1.79-3,1.79-5.09,0-2.21-.81-4.27-2.43-6.17.83-1.45,1.25-2.94,1.25-4.44,0-2.69-1.12-4.58-3.35-5.66-1.36-.66-3.07-1-5.12-1s-3.36.03-4.01.08c-2.13.17-3.21.57-3.23,1.22ZM112.3,159.53c0,2.95-.93,4.43-2.79,4.43-.46,0-.69-1.08-.69-3.24,0-.4,0-1.01.02-1.81s.02-1.41.02-1.81c0-.93.03-1.52.09-1.77.12-.5.4-.74.84-.74.69,0,1.28.52,1.78,1.57.49,1.01.73,2.14.73,3.38ZM109.09,144.79c.62,0,1.17.53,1.68,1.58.49,1.01.73,2.08.73,3.19,0,1.32-.12,2.17-.36,2.57-.24.4-.73.59-1.47.59-.18,0-.31-.02-.38-.05-.23-.11-.41-1.08-.54-2.93-.09-1.28-.13-2.49-.13-3.64,0-.89.16-1.33.47-1.33Z"/>
    <path class="st3" d="M120.42,160.54c-.33,1.48-.69,2.21-1.07,2.21-.06,0-.16-.11-.32-.33-.2-.31-.35-.51-.46-.62-.21-.21-.42-.32-.64-.32-.34,0-.51.34-.51,1.03,0,.4.51,1.13,1.53,2.2.99,1.03,1.63,1.55,1.92,1.55.48,0,.72-.25.72-.76,0-.3-.02-.75-.07-1.35s-.07-1.06-.07-1.35c0-1.24.28-1.87.83-1.88h1.78c.93-.01,1.57.06,1.91.21.73.31,1.09.99,1.08,2.04,0,.55-.2.92-.59,1.12-.36.13-.71.25-1.07.38-.39.17-.58.47-.58.92,0,.53.31.79.92.79s1.57-.05,2.83-.14c1.26-.09,2.2-.13,2.83-.13.59,0,1.48.07,2.65.2s2.06.2,2.65.2c.5,0,.75-.42.75-1.27,0-.48-.33-.79-.98-.92-.79-.15-1.23-.27-1.31-.38-.26-.34-.54-1.33-.83-2.97-.2-1.16-.4-2.31-.59-3.46-.64-3.03-1.22-5.4-1.71-7.13-.37-1.27-.99-2.97-1.85-5.11-1.06-2.63-1.78-3.94-2.14-3.94-.29,0-1.05,1.3-2.29,3.91-1.04,2.21-1.76,3.86-2.15,4.95-1.45,4.04-2.5,7.49-3.15,10.36ZM124.09,153.63c.23,0,.73,1.01,1.48,3.02.36.97.55,1.65.57,2.04,0,.17-.1.28-.32.33-.16.03-.38.03-.65,0-.14-.02-.28-.04-.43-.06-.43.01-.86.03-1.29.05-.71-.03-1.06-.21-1.06-.52,0-.47.23-1.39.68-2.75.46-1.4.81-2.1,1.03-2.1Z"/>
    <path class="st3" d="M144.78,142.29c-2.35-.08-3.46-.13-3.34-.13-1.11,0-1.81.19-2.1.58s-.44,1.3-.46,2.74l-.04,3.31c-.02,1.58.2,2.38.67,2.39.38.01.6-.33.68-1.01.11-.94.26-1.63.47-2.07.32-.71.79-1.31,1.41-1.82,1.06-.89,2.01-1.31,2.84-1.27.41.02.61.7.59,2.02-.01.6-.06,1.8-.15,3.59-.08,1.56-.12,3.08-.12,4.57,0,.67.04,2.03.13,4.08.08,1.94.12,3.26.11,3.95,0,.57-.3.95-.9,1.15-.89.21-1.58.35-2.07.43-.55.2-.83.56-.83,1.09,0,.59.18.9.55.92.18.01,1.2-.08,3.06-.28,2.07-.21,3.61-.34,4.61-.38.25-.01.91.04,1.96.16,1.17.12,1.82.18,1.95.19.04,0,.39.04,1.05.11.64.06.99.09,1.05.09.6,0,.91-.24.91-.73,0-.75-.25-1.21-.76-1.39-.96-.35-1.59-.53-1.89-.54-.86-.04-1.31-.46-1.35-1.25-.02-.35.02-1.51.11-3.48.11-2.33.17-4.05.18-5.17-.07-3.54-.15-6.22-.24-8.02.01-.81.21-1.21.59-1.19.5.02,1.08.29,1.74.8s1.24,1.15,1.74,1.92c.38.57.61.95.69,1.15.13.3.25.73.33,1.31.12.8.31,1.21.57,1.22.19.01.38-.12.56-.4s.27-.6.27-.97v-2.18c-.14-2.9-.21-4.44-.24-4.62-.1-.78-.38-1.18-.85-1.19-.02,0-1,.04-2.96.13-2.18.11-3.81.17-4.9.21-1.76.05-3.64.04-5.62-.03Z"/>
    <path class="st3" d="M165.26,142.21c-.45-.01-1.06-.05-1.84-.12-.78-.07-1.39-.11-1.83-.12-.46-.01-.69.28-.69.89,0,.43.08.72.25.87.07.06.26.14.58.22.74.2,1.27.34,1.59.43.33.16.54.3.61.41.1.17.15.52.15,1.04,0,.86-.04,2.15-.1,3.87s-.1,3-.1,3.87c0,1,.03,2.5.1,4.48s.11,3.48.1,4.48c0,.79-.35,1.36-1.02,1.71l-1.72.51c-.44.13-.66.5-.66,1.11,0,.35.15.52.45.52.52.01,1.37-.04,2.57-.14s2.06-.14,2.57-.13c.67.01,1.66.05,2.96.11,1.31.06,2.29.1,2.96.11.36.01.54-.21.54-.65,0-.38-.14-.67-.41-.87-.42-.3-.68-.52-.77-.68-.28-.42-.42-1.1-.41-2.04.02-1.5.04-2.62.06-3.37.01-1.18.03-1.98.05-2.39.03-.57.29-.85.77-.85h1.51c.36.03.54.46.55,1.29-.01,1.35-.03,2.42-.05,3.2,0,.38.02,1.01.04,1.88.02.75.04,1.37.04,1.86,0,.41-.2.71-.58.91-.39.2-.58.51-.58.95,0,.49.36.75,1.09.76.48.01,1.2-.03,2.14-.11.95-.08,1.66-.12,2.14-.11.6.01,1.46.03,2.6.06,1.13.03,2,.05,2.6.06.35.01.56,0,.64-.03.23-.09.35-.33.35-.7,0-.61-.31-1-.95-1.15-.93-.22-1.54-.48-1.84-.77-.3-.29-.45-.75-.45-1.37,0-1.04.02-2.48.06-4.32.04-1.97.06-3.42.07-4.33,0-.8-.03-2.03-.09-3.68-.07-1.65-.1-2.87-.09-3.68,0-.81.29-1.33.85-1.57.52-.12,1.04-.23,1.56-.35.56-.19.85-.64.85-1.36,0-.54-.27-.81-.82-.82-.71-.01-1.7,0-2.97.05-1.27.04-2.26.06-2.98.05-.19,0-.89-.03-2.11-.09-1.18-.05-1.89-.08-2.14-.08-.34,0-.57.06-.68.17-.15.15-.22.46-.23.93,0,.43.12.73.39.89.25.14.49.27.74.41.26.26.39.75.39,1.46,0,.28-.01.71-.04,1.28-.03.57-.04,1-.04,1.28,0,.4,0,1,.03,1.8s.03,1.4.03,1.8c0,.5-.24.74-.71.73h-1.62c-.3,0-.51-.22-.62-.66-.05-.23-.1-.72-.13-1.47-.01-.27-.01-1.16,0-2.66,0-1.37.04-2.29.11-2.75.05-.37.3-.71.73-1.01.41-.28.62-.61.62-.98,0-.28-.05-.56-.16-.82-.11-.26-.24-.4-.39-.4-.74-.01-1.84.02-3.3.09s-2.56.1-3.3.09Z"/>
    <path class="st3" d="M198.58,97.78v-1c-37.67-.42-79.51-.49-117.2,0v1l14.65.18c32.5.24,70.13.21,102.55-.18Z"/>
  </g>
</svg>