<?xml version="1.0" encoding="UTF-8"?>
<svg id="_レイヤー_1" data-name="レイヤー_1" xmlns="http://www.w3.org/2000/svg" version="1.1" viewBox="0 0 453.54 453.54">
  <!-- Generator: Adobe Illustrator 29.8.4, SVG Export Plug-In . SVG Version: 2.1.1 Build 6)  -->
  <defs>
    <style>
      .st0 {
        fill: #59b541;
      }

      .st1 {
        fill: #fff;
      }

      .st2 {
        fill: #eed660;
      }

      .st3 {
        fill: #231815;
      }

      .st4 {
        fill: #ec76a2;
      }
    </style>
  </defs>
  <g>
    <polygon class="st1" points="326.87 49.56 127.08 49.56 27.19 222.58 127.08 395.6 326.87 395.6 426.76 222.58 326.87 49.56"/>
    <path class="st3" d="M319.37,62.55c-30.55-4.21-63-5.21-94.48-5.21-32.54.25-65.71,1.55-97.81,7.22,0,0,12.99-7.5,12.99-7.5-33.16,37.93-59.31,80.97-81.41,126.02-7.15,15.16-13.8,30.84-18.48,47,0,0,0-15,0-15,5.59,15.29,12.97,31.43,19.86,46.21,10.78,22.3,21.83,45.31,35.04,66.28,14.02,20.99,27.42,41.93,44.99,60.53,0,0-12.99-7.5-12.99-7.5,32.98,5.59,66.52,7.26,99.89,7.83,29.15.39,58.59-.63,87.41-5.35,3.5-.7,9.02-1.56,12.49-2.49,0,0-12.99,7.5-12.99,7.5,21.43-25.89,39.79-53.76,57.41-82.2,17.3-28.53,33.78-57.47,47.03-88.19,0,0,0,9.75,0,9.75-10.13-22.3-21.88-44.08-33.98-65.42-19.65-34.23-40.03-68.99-64.97-99.48h0ZM332.01,40.65c31.81,60.4,65.76,119.96,100.59,178.55,0,0,2.03,3.36,2.03,3.36,0,0-2.03,3.39-2.03,3.39-16.82,27.72-34.21,58.31-50.27,86.32-16.65,29.62-34.65,61.72-50.61,91.83-24.84-.95-54.78-1.39-79.78-1.38-24.79-.08-50.16.13-74.92.46-18.4.24-36.85.61-55.25,1.22,0,0-2.18-4.49-2.18-4.49-30.59-61-66.39-119.72-102.76-177.42,9.13-13.41,21.05-32.47,29.69-46.43,26-42.62,50.98-85.98,74.16-130.2,0,0,1.89-3.7,1.89-3.7,0,0,4.51,0,4.51,0,65.65.13,139.28-.79,204.93-1.52h0Z"/>
  </g>
  <path class="st3" d="M100.73,344.16c-5-76.76,29-111.53,32-113.58s40,35.83,40,35.83c51-17.94,105-2.99,105-2.99l22.87-22.81,10.13-10.1c43,52.85,43,113.66,43,113.66l-35,44.86c-169.06,27.79-184.81-9.91-186,0l-32-44.86Z"/>
  <path class="st3" d="M-142.49,291.52"/>
  <path class="st3" d="M308.51,252.52l-7.91-11.92,7.91,11.92Z"/>
  <path class="st1" d="M226.98,282.52c-1.15,41.76-63.27,118.85-87.46,106.63,73.61,16.15,200.23-3.6,179.22-.12-53.85,8.9-96.45-104.85-91.75-106.51Z"/>
  <ellipse class="st2" cx="169.51" cy="326.02" rx="22" ry="19.5"/>
  <circle class="st0" cx="177.46" cy="326.02" r="14.05"/>
  <ellipse class="st2" cx="278.6" cy="326.02" rx="22" ry="19.5"/>
  <circle class="st0" cx="270.65" cy="326.02" r="14.05"/>
  <text/>
  <circle class="st4" cx="226.98" cy="349.52" r="6"/>
  <g>
    <path class="st3" d="M152.7,119.19c-.9.36-1.62-.18-2.76-1.26-.96-.9-2.22-2.1-3.66-2.1l-3.54.06h-2.82c-.78,5.22-.42,19.92.36,26.1.18,1.44.24,2.64,1.2,4.02.66.96,1.08,1.5,1.02,2.28,0,1.02-.54,1.74-1.98,2.22-2.22.78-7.08.72-9.24.06-1.98-.54-2.28-2.04-1.5-3.48,1.2-2.28,1.38-4.32,1.56-5.7.66-5.46.54-21.24.3-24.42-.06-.42-.12-.78-.12-1.14h-6.48c-1.44,0-2.7,1.2-3.6,2.1-.9.84-1.68,1.5-2.58,1.26-1.92-.66-.9-2.88.36-5.1,1.32-2.28,2.1-2.58,4.08-2.64.72,0,8.58.06,12.18.12,3.6-.06,12.06-.12,12.84-.12,1.98.06,2.76.36,4.08,2.64,1.26,2.22,2.34,4.2.3,5.1Z"/>
    <path class="st3" d="M189.6,148.77c-.24,1.08-1.2,1.44-2.4,1.5-.84,0-1.86,0-3.18-.36-.72-.24-1.86-.84-2.58-1.44-3,2.16-6.24,3.24-9.54,3.24-2.7,0-5.88-.9-7.92-3.9-1.32-1.92-1.68-4.26-1.08-6.6.96-3.9,5.22-6.96,11.16-6.84,1.56,0,2.46.12,3.9.6v-.06c.06-1.02.66-9.42-3.3-9.42-2.22-.06-2.7,2.22-3.72,4.26-1.44,3.06-5.28,4.56-7.32,1.68-1.02-1.44-.9-4.26,2.58-6.42,2.46-1.5,4.98-2.28,8.04-2.34,5.46-.18,10.2,1.68,10.5,7.98.18,3.06.18,6.12.24,8.22.18,4.5.84,6.72,3,7.74,1.02.42,1.8,1.14,1.62,2.16ZM173.16,146.85c1.92.48,3.9.12,6.42-1.62-.72-1.68-1.14-4.2-1.26-6.24-.72-.6-1.86-.96-3.3-1.02-2.22-.06-4.44.96-5.04,3.42-.78,3.06,1.26,5.04,3.18,5.46Z"/>
    <path class="st3" d="M226.25,149.73c-.12.84-.9,1.56-2.1,1.92-1.98.6-4.92.78-7.08.18-.9-.24-1.98-.72-2.28-1.5-.24-.66-.06-1.26.18-1.8.24-.54.24-1.26-.18-2.28-.42-.84-2.64-6.06-4.02-8.52-1.08.84-2.16,1.86-3.06,2.64,0,2.1,0,4.8.12,5.7.12.9.3,1.98.6,2.4,1.14,1.74,1.32,3.84-.78,4.56-1.92.66-4.86.6-6.54-.06-1.44-.54-2.04-1.98-1.14-3.42.96-1.56.96-2.82,1.02-3.96.3-3.9.3-6.72.18-10.32v-4.68c0-3.6-.06-8.7-.18-11.22,0-.66.06-3.66-.72-4.38-.78-.66-1.14-.96-1.26-1.74-.06-.6.18-1.2.78-1.62,1.44-1.02,3.36-1.68,5.76-2.28,1.74-.42,2.76,1.08,2.64,2.52,0,.06-.06,2.34-.12,4.74-.12,5.58-.24,10.08-.3,11.7v7.8c2.7-2.22,6.3-5.64,6.6-6.12.66-.96.6-1.56.36-2.04-.36-.66-.9-1.14-.9-2.04.06-1.08,1.08-1.56,1.86-1.74,1.98-.48,5.04-.42,6.96.06,1.32.3,2.22,1.02,2.34,1.86.12.78-.36,1.68-1.56,2.16-2.58,1.02-3.42,1.44-5.16,3.06-.78.72-1.32,1.32-2.16,2.16,1.2,2.82,3.9,9,5.22,10.86,1.14,1.68,1.98,2.4,3.78,3.3.96.54,1.26,1.32,1.14,2.1Z"/>
    <path class="st3" d="M259.56,147.93c.18,1.14-.66,2.1-2.46,2.94-1.56.72-4.5,1.2-6.9,1.14-8.28-.3-13.44-4.62-14.1-12.66-.78-9.12,4.26-14.52,10.86-15.6,5.22-.84,10.62,1.62,12.72,5.4,1.62,3,1.56,6.36-.6,8.7-1.44,1.56-3.72,2.4-7.86,2.82-2.22.24-4.98.12-7.26-.24.42,3.24,2.64,5.58,6.12,6.18,2.88.54,4.8.18,6.6,0,1.5-.12,2.7.12,2.88,1.32ZM248.04,126.81c-4.32.66-4.68,7.26-4.44,10.26,1.8.54,3.96.54,6.06.06,2.64-.6,4.08-1.62,4.26-3.84.3-2.82-1.56-7.14-5.88-6.48Z"/>
    <path class="st3" d="M297.12,153.63c-1.86.66-4.92.6-6.6-.06-1.44-.54-2.04-2.04-1.14-3.48.3-.42.48-.84.6-1.26-1.56,1.44-3.6,2.4-5.34,2.58-8.4,1.02-13.44-4.38-13.74-11.22-.24-4.62,1.56-13.86,13.2-14.1,2.52-.06,4.74.78,6.42,1.86-.06-3.96-.18-8.58-.24-10.32-.06-.6.18-2.1-.6-2.76-.78-.66-1.2-1.44-1.26-2.16,0-.66.24-1.2.78-1.62,1.5-1.44,3.48-1.74,5.82-2.34,1.8-.42,2.82,1.08,2.7,2.52,0,.06-.06,2.34-.12,4.74-.12,5.58-.24,11.28-.3,12.84,0,0-.18,16.2.06,17.76.12.9.3,1.98.6,2.46,1.14,1.68,1.32,3.84-.84,4.56ZM290.58,144.45c.12-2.94,0-12.66,0-12.66-2.22-1.5-4.68-2.04-7.26-1.02-5.58,2.28-4.74,11.94-1.98,14.76,2.4,2.52,7.08,1.92,9.24-1.08Z"/>
    <path class="st3" d="M336.35,148.77c-.24,1.08-1.2,1.44-2.4,1.5-.84,0-1.86,0-3.18-.36-.72-.24-1.86-.84-2.58-1.44-3,2.16-6.24,3.24-9.54,3.24-2.7,0-5.88-.9-7.92-3.9-1.32-1.92-1.68-4.26-1.08-6.6.96-3.9,5.22-6.96,11.16-6.84,1.56,0,2.46.12,3.9.6v-.06c.06-1.02.66-9.42-3.3-9.42-2.22-.06-2.7,2.22-3.72,4.26-1.44,3.06-5.28,4.56-7.32,1.68-1.02-1.44-.9-4.26,2.58-6.42,2.46-1.5,4.98-2.28,8.04-2.34,5.46-.18,10.2,1.68,10.5,7.98.18,3.06.18,6.12.24,8.22.18,4.5.84,6.72,3,7.74,1.02.42,1.8,1.14,1.62,2.16ZM319.91,146.85c1.92.48,3.9.12,6.42-1.62-.72-1.68-1.14-4.2-1.26-6.24-.72-.6-1.86-.96-3.3-1.02-2.22-.06-4.44.96-5.04,3.42-.78,3.06,1.26,5.04,3.18,5.46Z"/>
  </g>
  <g>
    <path class="st3" d="M164.97,204.24c0,.96-.54,1.68-1.98,2.22-2.28.78-6.42.72-8.64.06-1.98-.6-2.28-2.1-1.5-3.54,1.2-2.28,1.38-4.32,1.56-5.7.54-4.56.36-13.86.12-18.3-3.42,6.24-7.74,14.58-10.26,18.24-.66.9-3.6,1.26-4.44,0-.72-1.2-4.44-7.68-8.64-15.3-.18,3.12-.24,5.1-.3,6.96,0,0,.06,10.92.42,14.16.12,1.08.18,1.44.9,2.46.54.72.84,1.14.84,1.74-.06.72-.48,1.26-1.56,1.68-1.68.6-4.68.54-6.36,0-1.5-.42-1.74-1.56-1.14-2.64.9-1.74,1.02-2.7,1.2-3.72.48-4.08.24-24.78,0-27.18-.12-1.5-.3-2.28-1.2-3.54-.96-1.44-.6-2.52.84-3.12,1.5-.66,4.2-.6,5.82-.06,1.2.42,1.62,1.14,1.56,1.98,0,.3-.12,1.26.18,1.86,2.1,4.44,7.56,13.68,11.1,19.14,3.54-5.58,7.92-14.16,9.42-17.1.6-1.26-.18-2.4-.18-3,0-.96.66-1.68,1.86-2.16,1.98-.84,5.88-.78,7.98-.06,1.62.54,2.22,1.5,2.16,2.64-.06.6-.3,1.2-1.02,2.28-.6.96-.78,1.92-1.08,4.32-.24,1.98-.42,5.28-.48,8.16,0,0,.06,6.9.54,11.16.18,1.44.3,2.7,1.2,4.02.72,1.02,1.14,1.56,1.08,2.34Z"/>
    <path class="st3" d="M200.61,206.34c-.24,1.08-1.2,1.44-2.4,1.5-.84,0-1.86,0-3.18-.36-.72-.24-1.86-.84-2.58-1.44-3,2.16-6.24,3.24-9.54,3.24-2.7,0-5.88-.9-7.92-3.9-1.32-1.92-1.68-4.26-1.08-6.6.96-3.9,5.22-6.96,11.16-6.84,1.56,0,2.46.12,3.9.6v-.06c.06-1.02.66-9.42-3.3-9.42-2.22-.06-2.7,2.22-3.72,4.26-1.44,3.06-5.28,4.56-7.32,1.68-1.02-1.44-.9-4.26,2.58-6.42,2.46-1.5,4.98-2.28,8.04-2.34,5.46-.18,10.2,1.68,10.5,7.98.18,3.06.18,6.12.24,8.22.18,4.5.84,6.72,3,7.74,1.02.42,1.8,1.14,1.62,2.16ZM184.17,204.42c1.92.48,3.9.12,6.42-1.62-.72-1.68-1.14-4.2-1.26-6.24-.72-.6-1.86-.96-3.3-1.02-2.22-.06-4.44.96-5.04,3.42-.78,3.06,1.26,5.04,3.18,5.46Z"/>
    <path class="st3" d="M234.62,185.76c-.06,1.26-.12,4.56-2.22,4.56-1.8.06-1.86-1.92-2.16-2.64-.3-.6-.84-2.16-1.62-2.94-1.8-1.74-3.78-2.46-5.7-2.34-2.4.18-4.02,1.5-4.38,3.42-.36,1.98.48,4.02,2.58,4.74,3.9,1.38,6.9,2.28,9.06,3.84,2.64,1.92,3.78,4.86,3.24,8.1-.54,3.42-2.7,6.18-6,7.38-1.68.54-3.3.54-4.56.54-3.12-.06-4.5-1.98-7.02-1.02-1.02.36-1.98,0-2.58-.6-.72-.78-1.02-1.98-.96-3.9,0-1.26.12-4.74,2.22-4.56,2.04.18,1.32,3.9,3.18,5.04,1.14.6,2.34,1.14,4.2.9,3-.3,4.44-2.4,4.32-4.74-.06-1.86-2.4-3.42-5.46-4.44-5.04-1.62-9.96-3.42-10.02-8.82-.12-6.84,5.46-9.3,10.5-9.3,2.22,0,4.92.84,7.92,2.16.54.24,1.2.3,1.86.12,1.08-.24,1.98,0,2.58.6.72.78,1.08,1.98,1.02,3.9Z"/>
    <path class="st3" d="M272.84,206.34c-.24,1.08-1.2,1.44-2.4,1.5-.84,0-1.86,0-3.18-.36-.72-.24-1.86-.84-2.58-1.44-3,2.16-6.24,3.24-9.54,3.24-2.7,0-5.88-.9-7.92-3.9-1.32-1.92-1.68-4.26-1.08-6.6.96-3.9,5.22-6.96,11.16-6.84,1.56,0,2.46.12,3.9.6v-.06c.06-1.02.66-9.42-3.3-9.42-2.22-.06-2.7,2.22-3.72,4.26-1.44,3.06-5.28,4.56-7.32,1.68-1.02-1.44-.9-4.26,2.58-6.42,2.46-1.5,4.98-2.28,8.04-2.34,5.46-.18,10.2,1.68,10.5,7.98.18,3.06.18,6.12.24,8.22.18,4.5.84,6.72,3,7.74,1.02.42,1.8,1.14,1.62,2.16ZM256.4,204.42c1.92.48,3.9.12,6.42-1.62-.72-1.68-1.14-4.2-1.26-6.24-.72-.6-1.86-.96-3.3-1.02-2.22-.06-4.44.96-5.04,3.42-.78,3.06,1.26,5.04,3.18,5.46Z"/>
    <path class="st3" d="M315.92,207.12c-1.8.66-4.74.48-6.12-.18-1.32-.72-1.44-2.28-.84-3.48.78-1.38,1.5-4.2,1.56-4.98.54-4.68-.12-9-1.02-10.86-.72-1.56-1.62-2.4-2.76-2.7-1.38-.42-2.94.12-3.96,1.32.72,2.64.9,6.36.66,10.44.06,1.08-.12,2.4.54,3.66.84,1.68.96,3.54-.66,4.26-1.62.78-4.68.78-6.12.18-1.32-.6-1.5-2.22-.9-3.42.72-1.44.96-4.08,1.02-4.86.18-3-.12-7.32-.84-9.72-.48-1.56-1.26-2.46-2.88-2.46-1.44-.06-2.76,1.08-3.18,3.24-.66,3.48-.18,11.7,0,13.32.06.84.24,1.92.42,2.34,1.02,1.92.9,3.9-.6,4.56-1.56.6-4.98.6-6.42-.06-1.38-.66-1.62-2.16-.9-3.42.9-1.68.78-5.1.84-6.12.06-2.76.18-4.98.06-7.92,0-.84-.3-2.4-.84-2.82-.66-.48-1.08-.9-1.2-1.5-.18-.6.06-1.32.66-1.98,1.2-1.5,3.06-2.4,4.44-2.88,1.62-.48,2.7.9,2.52,2.4,1.02-1.38,3.24-2.28,5.58-2.28s4.8.84,6.24,2.82c1.44-1.14,3.48-2.16,6.54-2.04,2.1.06,3.9.66,5.04,1.26,5.46,3.18,4.32,9.84,3.54,15.9,0,1.14-.24,2.16.42,3.48.84,1.68.9,3.84-.84,4.5Z"/>
    <path class="st3" d="M338.3,202.44c.12.84.3,1.92.6,2.4,1.14,1.74,1.32,3.84-.84,4.56-1.86.66-4.92.6-6.6-.06-1.44-.54-2.1-1.98-1.2-3.48,1.02-1.5,1.02-2.76,1.08-3.9.3-3.9.18-4.44.18-4.44,0-3.66.12-2.82-.06-5.4,0-.6-.06-2.04-.84-2.7-.78-.72-1.14-.9-1.26-1.62-.12-.72.3-1.26.78-1.62,1.5-1.2,3.48-1.68,5.82-2.28,1.8-.48,2.82,1.02,2.7,2.46,0,.12-.06,2.88-.18,5.28-.18,2.58-.18,3.18-.24,4.74,0,0-.18,4.5.06,6.06ZM334.1,180.6c-1.74,0-3-.84-3.54-2.4-.72-2.16-.42-4.98,1.38-6,.78-.42,1.68-.66,2.52-.66,2.4,0,4.26,1.68,4.38,3.84.12,3.96-2.7,5.22-4.74,5.22Z"/>
  </g>
</svg>